<svg id="Layer_1" data-name="Layer 1" xmlns="http://www.w3.org/2000/svg" width="734.41" height="444.91" viewBox="0 0 734.41 444.91"><defs><style>.cls-1{opacity:0.5;}.cls-2{fill:none;stroke:lime;stroke-miterlimit:10;stroke-width:7px;}</style></defs><title>dollar_sign</title><g class="cls-1"><path class="cls-2" d="M132,423.72c0-4.34-5.3-6.26-9.64-7.71v-.48a78.6,78.6,0,0,1-20.72-8.67c-20.72-12.52-39.5-30.35-53.47-44.32-7.71-8.19-16.86-21.2-8.67-33.24a178.75,178.75,0,0,1,35.17-36.61c8.67-6.75,15.9-9.64,23.12-5.78,5.3,4.33,5.78,11.08,1.93,18.31-6.26,8.19-2.89,13.49,5.3,20.23,5.78,4.33,12,10.12,19.27,15.42,5.78,4.33,7.71.48,7.71-3.85V254.15c0-4.82-4.82-9.64-10.12-13.49-26-19.75-53.47-41.43-62.15-50.1-22.64-24.09-14.93-62.15-2.41-85.27,10.12-18.79,26-39,54-58.29a54.16,54.16,0,0,1,13.49-7.71C129.56,36.88,132,35,132,28.69V26.28C132,16.65,133.89,6,149.31,6c16.38,0,16.38,10.6,16.38,20.23V31.1c0,3.85,2.41,7.71,9.15,11.56,12.53,6.74,37.58,24.09,47.69,34.2C226.87,81.2,237,87,243.73,84.09c8.67-2.89,13.49-1.93,16.86,4.82,2.89,6.74-2.41,15.9-5.78,20.72a105.14,105.14,0,0,1-28.91,27.46c-17.82,12-24.57,7.23-51.06-16.86h-.48c-4.82-4.82-8.67-4.34-8.67,1.44v52c0,9.15,2.89,13.49,8.19,18.31,17.82,13,35.17,25.53,43.84,32.76,45.77,36.61,55.4,55.4,34.2,101.17-14.45,31.31-36.13,60.22-67.93,85.75A22.19,22.19,0,0,1,175.8,416a.47.47,0,0,1-.48.48c-7.23,2.41-9.64,2.89-9.64,7.23,0,12,0,20.23-16.38,20.23C133.89,444,132,435.76,132,423.72Zm-8.67-269.78c6.26,4.82,8.67,3.37,8.67-3.85v-53c0-2.41-3.37-4.34-5.78-5.3-11.56-3.37-17.34.48-23.12,10.12C90.05,124.07,100.65,135.64,123.29,153.94Zm50.58,207.15h.48c9.15-3.85,16.38-14,22.16-30.35s1-28.9-22.16-50.1c-5.3-4.82-8.67-2.89-8.67,1.45v72.74C165.69,361.09,170,362.06,173.88,361.09Z" transform="translate(-32.76 -2.55)"/><path class="cls-2" d="M382.48,423.72c0-4.34-5.3-6.26-9.64-7.71v-.48a78.55,78.55,0,0,1-20.71-8.67c-20.72-12.52-39.5-30.35-53.47-44.32-7.71-8.19-16.86-21.2-8.67-33.24a178.78,178.78,0,0,1,35.17-36.61c8.67-6.75,15.9-9.64,23.13-5.78,5.3,4.33,5.78,11.08,1.93,18.31-6.26,8.19-2.89,13.49,5.3,20.23,5.78,4.33,12,10.12,19.27,15.42,5.78,4.33,7.71.48,7.71-3.85V254.15c0-4.82-4.82-9.64-10.12-13.49-26-19.75-53.47-41.43-62.15-50.1-22.64-24.09-14.93-62.15-2.41-85.27,10.12-18.79,26-39,54-58.29a54.19,54.19,0,0,1,13.49-7.71c4.82-2.41,7.23-4.33,7.23-10.6V26.28C382.48,16.65,384.4,6,399.82,6c16.38,0,16.38,10.6,16.38,20.23V31.1c0,3.85,2.41,7.71,9.15,11.56,12.52,6.74,37.58,24.09,47.69,34.2,4.33,4.34,14.45,10.12,21.2,7.23,8.67-2.89,13.49-1.93,16.86,4.82,2.89,6.74-2.41,15.9-5.78,20.72a105.17,105.17,0,0,1-28.9,27.46c-17.82,12-24.57,7.23-51.07-16.86h-.48c-4.82-4.82-8.67-4.34-8.67,1.44v52c0,9.15,2.89,13.49,8.19,18.31,17.82,13,35.17,25.53,43.84,32.76,45.76,36.61,55.4,55.4,34.2,101.17-14.45,31.31-36.13,60.22-67.93,85.75a22.19,22.19,0,0,1-8.19,4.34.47.47,0,0,1-.48.48c-7.22,2.41-9.63,2.89-9.63,7.23,0,12,0,20.23-16.38,20.23C384.4,444,382.48,435.76,382.48,423.72Zm-8.67-269.78c6.26,4.82,8.67,3.37,8.67-3.85v-53c0-2.41-3.37-4.34-5.78-5.3-11.56-3.37-17.34.48-23.13,10.12C340.57,124.07,351.16,135.64,373.81,153.94Zm50.59,207.15h.48c9.16-3.85,16.38-14,22.16-30.35s1-28.9-22.16-50.1c-5.3-4.82-8.67-2.89-8.67,1.45v72.74C416.2,361.09,420.54,362.06,424.39,361.09Z" transform="translate(-32.76 -2.55)"/><path class="cls-2" d="M633,423.72c0-4.34-5.3-6.26-9.64-7.71v-.48a78.55,78.55,0,0,1-20.71-8.67c-20.72-12.52-39.5-30.35-53.47-44.32-7.71-8.19-16.86-21.2-8.67-33.24a178.78,178.78,0,0,1,35.17-36.61c8.67-6.75,15.9-9.64,23.13-5.78,5.3,4.33,5.78,11.08,1.93,18.31-6.26,8.19-2.89,13.49,5.3,20.23,5.78,4.33,12,10.12,19.27,15.42,5.78,4.33,7.71.48,7.71-3.85V254.15c0-4.82-4.82-9.64-10.12-13.49-26-19.75-53.47-41.43-62.15-50.1-22.64-24.09-14.93-62.15-2.41-85.27,10.12-18.79,26-39,54-58.29a54.19,54.19,0,0,1,13.49-7.71C630.58,36.88,633,35,633,28.69V26.28C633,16.65,634.92,6,650.33,6c16.38,0,16.38,10.6,16.38,20.23V31.1c0,3.85,2.41,7.71,9.15,11.56,12.52,6.74,37.58,24.09,47.69,34.2C727.89,81.2,738,87,744.76,84.09c8.67-2.89,13.49-1.93,16.86,4.82,2.89,6.74-2.41,15.9-5.78,20.72a105.17,105.17,0,0,1-28.9,27.46c-17.82,12-24.57,7.23-51.07-16.86h-.48c-4.82-4.82-8.67-4.34-8.67,1.44v52c0,9.15,2.89,13.49,8.19,18.31,17.82,13,35.17,25.53,43.84,32.76,45.76,36.61,55.4,55.4,34.2,101.17-14.45,31.31-36.13,60.22-67.93,85.75a22.19,22.19,0,0,1-8.19,4.34.47.47,0,0,1-.48.48c-7.22,2.41-9.63,2.89-9.63,7.23,0,12,0,20.23-16.38,20.23C634.92,444,633,435.76,633,423.72Zm-8.67-269.78c6.26,4.82,8.67,3.37,8.67-3.85v-53c0-2.41-3.37-4.34-5.78-5.3-11.56-3.37-17.34.48-23.13,10.12C591.08,124.07,601.68,135.64,624.32,153.94ZM674.9,361.09h.48c9.16-3.85,16.38-14,22.16-30.35s1-28.9-22.16-50.1c-5.3-4.82-8.67-2.89-8.67,1.45v72.74C666.71,361.09,671,362.06,674.9,361.09Z" transform="translate(-32.76 -2.55)"/></g></svg>