<svg id="Layer_1" data-name="Layer 1" xmlns="http://www.w3.org/2000/svg" width="430.82" height="449.43" viewBox="0 0 430.82 449.43"><defs><style>.cls-1{opacity:0.78;}.cls-2{fill:red;}</style></defs><title>8bitbomb</title><g class="cls-1"><rect class="cls-2" x="268.29" y="30.08" width="15.04" height="15.04"/><rect class="cls-2" x="150.42" y="73.82" width="15.04" height="15.04"/><rect class="cls-2" x="312.7" width="15.04" height="15.04"/><rect class="cls-2" x="385.69" width="15.04" height="15.04"/><rect class="cls-2" x="370.65" y="15.04" width="15.04" height="15.04"/><rect class="cls-2" x="327.75" y="30.08" width="15.04" height="15.04"/><rect class="cls-2" x="385.69" y="60.17" width="15.04" height="15.04"/><rect class="cls-2" x="415.77" y="60.17" width="15.04" height="15.04"/><rect class="cls-2" x="385.69" y="103.47" width="15.04" height="15.04"/><polygon class="cls-2" points="330.92 71.99 315.88 71.99 315.88 87.03 330.92 87.03 345.97 87.03 361.01 87.03 361.01 71.99 345.97 71.99 330.92 71.99"/><rect class="cls-2" x="60.17" y="253.89" width="15.04" height="15.04"/><polygon class="cls-2" points="60.17 314.05 60.17 299.01 60.17 283.97 45.13 283.97 45.13 299.01 45.13 314.05 45.13 329.1 60.17 329.1 60.17 314.05"/><rect class="cls-2" x="60.17" y="344.14" width="15.04" height="15.04"/><rect class="cls-2" x="90.25" y="374.22" width="15.04" height="15.04"/><path class="cls-2" d="M135.38,103.9v29.65H90.25v45.13H60.17v15H30.08V223.8H15v30.08H0V359.18H15v30.08h15v30.08H60.17v15H90.25v15H195.55v-15h30.08v-15h30.08v-30h15v-30h15V254.12h-15V224h-15V194H225.87V178.68H195.55V133.55H150.42V88.86h-15Zm30.08,44.69h15v45.13h30.32V209h29.85v30.08h15v30.08h15V344.3h-15v30h-15v30H210.59v15H180.5v15H105.29v-15H75.21v-15H45.13V374.22h-15V344.14H15V268.93h15V238.84h15V208.76H75.21v-15h30.08V148.59h60.17Z"/><polygon class="cls-2" points="285.8 87.03 270.76 87.03 270.76 102.07 285.8 102.07 300.84 102.07 315.88 102.07 315.88 87.03 300.84 87.03 285.8 87.03"/><polygon class="cls-2" points="225.63 60.6 210.59 60.6 195.55 60.6 180.5 60.6 165.46 60.6 165.46 73.82 180.5 73.82 195.55 73.82 210.59 73.82 225.63 73.82 240.67 73.82 240.67 60.6 225.63 60.6"/><polygon class="cls-2" points="255.71 73.82 240.67 73.82 240.67 87.03 255.71 87.03 270.76 87.03 270.76 73.82 255.71 73.82"/><rect class="cls-2" x="342.79" y="118.51" width="15.04" height="15.04"/><rect class="cls-2" x="342.79" y="148.59" width="15.04" height="15.04"/><rect class="cls-2" x="297.66" y="118.51" width="15.04" height="15.04"/><rect class="cls-2" x="282.62" y="133.55" width="15.04" height="15.04"/><rect class="cls-2" x="400.73" y="118.51" width="15.04" height="15.04"/><rect class="cls-2" x="297.66" y="45.13" width="15.04" height="15.04"/></g></svg>