<svg id="Layer_1" data-name="Layer 1" xmlns="http://www.w3.org/2000/svg" width="734.41" height="444.91" viewBox="0 0 734.41 444.91"><defs><style>.cls-1{opacity:0.5;}.cls-2{fill:none;stroke:lime;stroke-miterlimit:10;stroke-width:7px;}</style></defs><title>dollarsign</title><g class="cls-1"><path class="cls-2" d="M99.21,421.18c0-4.34-5.3-6.26-9.64-7.71V413a78.6,78.6,0,0,1-20.72-8.67C48.14,391.79,29.36,374,15.38,360c-7.71-8.19-16.86-21.2-8.67-33.24a178.75,178.75,0,0,1,35.17-36.61c8.67-6.75,15.9-9.64,23.12-5.78,5.3,4.33,5.78,11.08,1.93,18.31-6.26,8.19-2.89,13.49,5.3,20.23,5.78,4.33,12,10.12,19.27,15.42,5.78,4.33,7.71.48,7.71-3.85V251.6c0-4.82-4.82-9.64-10.12-13.49-26-19.75-53.47-41.43-62.15-50.1C4.3,163.92,12,125.86,24.54,102.74c10.12-18.79,26-39,54-58.29A54.16,54.16,0,0,1,92,36.74c4.82-2.41,7.23-4.33,7.23-10.6V23.73c0-9.63,1.93-20.23,17.34-20.23,16.38,0,16.38,10.6,16.38,20.23v4.82c0,3.85,2.41,7.71,9.15,11.56,12.53,6.74,37.58,24.09,47.69,34.2,4.33,4.34,14.45,10.12,21.2,7.23,8.67-2.89,13.49-1.93,16.86,4.82,2.89,6.74-2.41,15.9-5.78,20.72a105.14,105.14,0,0,1-28.91,27.46c-17.82,12-24.57,7.23-51.06-16.86h-.48c-4.82-4.82-8.67-4.34-8.67,1.44v52c0,9.15,2.89,13.49,8.19,18.31,17.82,13,35.17,25.53,43.84,32.76,45.77,36.61,55.4,55.4,34.2,101.17-14.45,31.31-36.13,60.22-67.93,85.75a22.19,22.19,0,0,1-8.19,4.34.47.47,0,0,1-.48.48c-7.23,2.41-9.64,2.89-9.64,7.23,0,12,0,20.23-16.38,20.23C101.14,441.41,99.21,433.22,99.21,421.18ZM90.54,151.4c6.26,4.82,8.67,3.37,8.67-3.85v-53c0-2.41-3.37-4.34-5.78-5.3-11.56-3.37-17.34.48-23.12,10.12C57.3,121.53,67.89,133.09,90.54,151.4Zm50.58,207.15h.48c9.15-3.85,16.38-14,22.16-30.35s1-28.9-22.16-50.1c-5.3-4.82-8.67-2.89-8.67,1.45v72.74C132.93,358.55,137.27,359.51,141.12,358.55Z"/><path class="cls-2" d="M349.72,421.18c0-4.34-5.3-6.26-9.64-7.71V413a78.55,78.55,0,0,1-20.71-8.67C298.66,391.79,279.87,374,265.9,360c-7.71-8.19-16.86-21.2-8.67-33.24a178.78,178.78,0,0,1,35.17-36.61c8.67-6.75,15.9-9.64,23.13-5.78,5.3,4.33,5.78,11.08,1.93,18.31-6.26,8.19-2.89,13.49,5.3,20.23,5.78,4.33,12,10.12,19.27,15.42,5.78,4.33,7.71.48,7.71-3.85V251.6c0-4.82-4.82-9.64-10.12-13.49-26-19.75-53.47-41.43-62.15-50.1-22.64-24.09-14.93-62.15-2.41-85.27,10.12-18.79,26-39,54-58.29a54.19,54.19,0,0,1,13.49-7.71c4.82-2.41,7.23-4.33,7.23-10.6V23.73c0-9.63,1.93-20.23,17.34-20.23,16.38,0,16.38,10.6,16.38,20.23v4.82c0,3.85,2.41,7.71,9.15,11.56,12.52,6.74,37.58,24.09,47.69,34.2,4.33,4.34,14.45,10.12,21.2,7.23,8.67-2.89,13.49-1.93,16.86,4.82,2.89,6.74-2.41,15.9-5.78,20.72a105.17,105.17,0,0,1-28.9,27.46c-17.82,12-24.57,7.23-51.07-16.86h-.48c-4.82-4.82-8.67-4.34-8.67,1.44v52c0,9.15,2.89,13.49,8.19,18.31,17.82,13,35.17,25.53,43.84,32.76,45.76,36.61,55.4,55.4,34.2,101.17-14.45,31.31-36.13,60.22-67.93,85.75a22.19,22.19,0,0,1-8.19,4.34.47.47,0,0,1-.48.48c-7.22,2.41-9.63,2.89-9.63,7.23,0,12,0,20.23-16.38,20.23C351.65,441.41,349.72,433.22,349.72,421.18ZM341,151.4c6.26,4.82,8.67,3.37,8.67-3.85v-53c0-2.41-3.37-4.34-5.78-5.3-11.56-3.37-17.34.48-23.13,10.12C307.81,121.53,318.41,133.09,341,151.4Zm50.59,207.15h.48c9.16-3.85,16.38-14,22.16-30.35s1-28.9-22.16-50.1c-5.3-4.82-8.67-2.89-8.67,1.45v72.74C383.45,358.55,387.78,359.51,391.64,358.55Z"/><path class="cls-2" d="M600.23,421.18c0-4.34-5.3-6.26-9.64-7.71V413a78.55,78.55,0,0,1-20.71-8.67C549.17,391.79,530.38,374,516.41,360c-7.71-8.19-16.86-21.2-8.67-33.24a178.78,178.78,0,0,1,35.17-36.61c8.67-6.75,15.9-9.64,23.13-5.78,5.3,4.33,5.78,11.08,1.93,18.31-6.26,8.19-2.89,13.49,5.3,20.23,5.78,4.33,12,10.12,19.27,15.42,5.78,4.33,7.71.48,7.71-3.85V251.6c0-4.82-4.82-9.64-10.12-13.49-26-19.75-53.47-41.43-62.15-50.1-22.64-24.09-14.93-62.15-2.41-85.27,10.12-18.79,26-39,54-58.29A54.19,54.19,0,0,1,593,36.74c4.82-2.41,7.23-4.33,7.23-10.6V23.73c0-9.63,1.93-20.23,17.34-20.23C634,3.5,634,14.1,634,23.73v4.82c0,3.85,2.41,7.71,9.15,11.56,12.52,6.74,37.58,24.09,47.69,34.2,4.33,4.34,14.45,10.12,21.2,7.23,8.67-2.89,13.49-1.93,16.86,4.82,2.89,6.74-2.41,15.9-5.78,20.72a105.17,105.17,0,0,1-28.9,27.46c-17.82,12-24.57,7.23-51.07-16.86h-.48c-4.82-4.82-8.67-4.34-8.67,1.44v52c0,9.15,2.89,13.49,8.19,18.31C660,202.46,677.31,215,686,222.21c45.76,36.61,55.4,55.4,34.2,101.17-14.45,31.31-36.13,60.22-67.93,85.75a22.19,22.19,0,0,1-8.19,4.34.47.47,0,0,1-.48.48c-7.22,2.41-9.63,2.89-9.63,7.23,0,12,0,20.23-16.38,20.23C602.16,441.41,600.23,433.22,600.23,421.18ZM591.56,151.4c6.26,4.82,8.67,3.37,8.67-3.85v-53c0-2.41-3.37-4.34-5.78-5.3-11.56-3.37-17.34.48-23.13,10.12C558.32,121.53,568.92,133.09,591.56,151.4Zm50.59,207.15h.48c9.16-3.85,16.38-14,22.16-30.35s1-28.9-22.16-50.1c-5.3-4.82-8.67-2.89-8.67,1.45v72.74C634,358.55,638.29,359.51,642.15,358.55Z"/></g></svg>