<svg id="Layer_1" data-name="Layer 1" xmlns="http://www.w3.org/2000/svg" width="631.7" height="260.9" viewBox="0 0 631.7 260.9"><defs><style>.cls-1{opacity:0.78;}.cls-2{fill:none;stroke:blue;stroke-miterlimit:10;stroke-width:7px;}</style></defs><title>nan</title><g class="cls-1"><path class="cls-2" d="M56,127V272.12H19.3V18.22H56V72.62H74.42V90.76H92.79V108.9h18.37V127h18.37v18.14h18.37V163.3h18.37V18.22H203v253.9H166.29V217.71H147.91V199.57H129.54V181.44H111.17V163.3H92.79V145.17H74.42V127Z" transform="translate(-15.8 -14.72)"/><path class="cls-2" d="M276.53,272.12V254H258.16V235.85H239.78V163.3h18.37V145.17h18.37V127H368.4v18.14h18.37V108.9H368.4V90.76H276.53V54.49H386.77V72.62h18.37V90.76h18.37V272.12H386.77V254H368.4v18.14Zm18.37-36.27H368.4V217.71h18.37V181.44H368.4V163.3H294.9v18.14H276.53v36.27H294.9Z" transform="translate(-15.8 -14.72)"/><path class="cls-2" d="M497,127V272.12H460.26V18.22H497V72.62h18.37V90.76h18.37V108.9h18.37V127h18.37v18.14h18.37V163.3h18.37V18.22H644v253.9H607.25V217.71H588.88V199.57H570.51V181.44H552.13V163.3H533.76V145.17H515.39V127Z" transform="translate(-15.8 -14.72)"/></g></svg>