<svg xmlns="http://www.w3.org/2000/svg" xmlns:xlink="http://www.w3.org/1999/xlink" width="124.94" height="124.94" viewBox="0 0 124.94 124.94"><defs><style>.cls-1,.cls-2{fill:none;}.cls-2{stroke:#231f20;stroke-width:0.3px;stroke-dasharray:2 2;}.cls-3{fill:url(#USGS_19_Land_Inundation);}</style><pattern id="USGS_19_Land_Inundation" data-name="USGS 19 Land Inundation" width="72" height="72" patternUnits="userSpaceOnUse" viewBox="0 0 72 72"><rect class="cls-1" width="72" height="72"/><line class="cls-2" x1="71" y1="71" x2="144.44" y2="71"/><line class="cls-2" x1="71" y1="67" x2="144.44" y2="67"/><line class="cls-2" x1="71" y1="63" x2="144.44" y2="63"/><line class="cls-2" x1="71" y1="59" x2="144.44" y2="59"/><line class="cls-2" x1="71" y1="55" x2="144.44" y2="55"/><line class="cls-2" x1="71" y1="51" x2="144.44" y2="51"/><line class="cls-2" x1="71" y1="47" x2="144.44" y2="47"/><line class="cls-2" x1="71" y1="43" x2="144.44" y2="43"/><line class="cls-2" x1="71" y1="39" x2="144.44" y2="39"/><line class="cls-2" x1="71" y1="35" x2="144.44" y2="35"/><line class="cls-2" x1="71" y1="31" x2="144.44" y2="31"/><line class="cls-2" x1="71" y1="27" x2="144.44" y2="27"/><line class="cls-2" x1="71" y1="23" x2="144.44" y2="23"/><line class="cls-2" x1="71" y1="19" x2="144.44" y2="19"/><line class="cls-2" x1="71" y1="15" x2="144.44" y2="15"/><line class="cls-2" x1="71" y1="11" x2="144.44" y2="11"/><line class="cls-2" x1="71" y1="7" x2="144.44" y2="7"/><line class="cls-2" x1="71" y1="3" x2="144.44" y2="3"/><line class="cls-2" x1="-1" y1="71" x2="72.44" y2="71"/><line class="cls-2" x1="-1" y1="67" x2="72.44" y2="67"/><line class="cls-2" x1="-1" y1="63" x2="72.44" y2="63"/><line class="cls-2" x1="-1" y1="59" x2="72.44" y2="59"/><line class="cls-2" x1="-1" y1="55" x2="72.44" y2="55"/><line class="cls-2" x1="-1" y1="51" x2="72.44" y2="51"/><line class="cls-2" x1="-1" y1="47" x2="72.44" y2="47"/><line class="cls-2" x1="-1" y1="43" x2="72.44" y2="43"/><line class="cls-2" x1="-1" y1="39" x2="72.44" y2="39"/><line class="cls-2" x1="-1" y1="35" x2="72.44" y2="35"/><line class="cls-2" x1="-1" y1="31" x2="72.44" y2="31"/><line class="cls-2" x1="-1" y1="27" x2="72.44" y2="27"/><line class="cls-2" x1="-1" y1="23" x2="72.44" y2="23"/><line class="cls-2" x1="-1" y1="19" x2="72.44" y2="19"/><line class="cls-2" x1="-1" y1="15" x2="72.44" y2="15"/><line class="cls-2" x1="-1" y1="11" x2="72.44" y2="11"/><line class="cls-2" x1="-1" y1="7" x2="72.44" y2="7"/><line class="cls-2" x1="-1" y1="3" x2="72.44" y2="3"/><line class="cls-2" x1="1.04" y1="69" x2="74.48" y2="69"/><line class="cls-2" x1="1.04" y1="65" x2="74.48" y2="65"/><line class="cls-2" x1="1.04" y1="61" x2="74.48" y2="61"/><line class="cls-2" x1="1.04" y1="57" x2="74.48" y2="57"/><line class="cls-2" x1="1.04" y1="53" x2="74.48" y2="53"/><line class="cls-2" x1="1.04" y1="49" x2="74.48" y2="49"/><line class="cls-2" x1="1.04" y1="45" x2="74.48" y2="45"/><line class="cls-2" x1="1.04" y1="41" x2="74.48" y2="41"/><line class="cls-2" x1="1.04" y1="37" x2="74.48" y2="37"/><line class="cls-2" x1="1.04" y1="33" x2="74.48" y2="33"/><line class="cls-2" x1="1.04" y1="29" x2="74.48" y2="29"/><line class="cls-2" x1="1.04" y1="25" x2="74.48" y2="25"/><line class="cls-2" x1="1.04" y1="21" x2="74.48" y2="21"/><line class="cls-2" x1="1.04" y1="17" x2="74.48" y2="17"/><line class="cls-2" x1="1.04" y1="13" x2="74.48" y2="13"/><line class="cls-2" x1="1.04" y1="9" x2="74.48" y2="9"/><line class="cls-2" x1="1.04" y1="5" x2="74.48" y2="5"/><line class="cls-2" x1="1.04" y1="1" x2="74.48" y2="1"/><line class="cls-2" x1="-73" y1="71" x2="0.44" y2="71"/><line class="cls-2" x1="-73" y1="67" x2="0.44" y2="67"/><line class="cls-2" x1="-73" y1="63" x2="0.44" y2="63"/><line class="cls-2" x1="-73" y1="59" x2="0.44" y2="59"/><line class="cls-2" x1="-73" y1="55" x2="0.44" y2="55"/><line class="cls-2" x1="-73" y1="51" x2="0.44" y2="51"/><line class="cls-2" x1="-73" y1="47" x2="0.44" y2="47"/><line class="cls-2" x1="-73" y1="43" x2="0.44" y2="43"/><line class="cls-2" x1="-73" y1="39" x2="0.44" y2="39"/><line class="cls-2" x1="-73" y1="35" x2="0.44" y2="35"/><line class="cls-2" x1="-73" y1="31" x2="0.44" y2="31"/><line class="cls-2" x1="-73" y1="27" x2="0.44" y2="27"/><line class="cls-2" x1="-73" y1="23" x2="0.44" y2="23"/><line class="cls-2" x1="-73" y1="19" x2="0.44" y2="19"/><line class="cls-2" x1="-73" y1="15" x2="0.44" y2="15"/><line class="cls-2" x1="-73" y1="11" x2="0.44" y2="11"/><line class="cls-2" x1="-73" y1="7" x2="0.44" y2="7"/><line class="cls-2" x1="-73" y1="3" x2="0.44" y2="3"/><line class="cls-2" x1="-70.96" y1="69" x2="2.48" y2="69"/><line class="cls-2" x1="-70.96" y1="65" x2="2.48" y2="65"/><line class="cls-2" x1="-70.96" y1="61" x2="2.48" y2="61"/><line class="cls-2" x1="-70.96" y1="57" x2="2.48" y2="57"/><line class="cls-2" x1="-70.96" y1="53" x2="2.48" y2="53"/><line class="cls-2" x1="-70.96" y1="49" x2="2.48" y2="49"/><line class="cls-2" x1="-70.96" y1="45" x2="2.48" y2="45"/><line class="cls-2" x1="-70.96" y1="41" x2="2.48" y2="41"/><line class="cls-2" x1="-70.96" y1="37" x2="2.48" y2="37"/><line class="cls-2" x1="-70.96" y1="33" x2="2.48" y2="33"/><line class="cls-2" x1="-70.96" y1="29" x2="2.48" y2="29"/><line class="cls-2" x1="-70.96" y1="25" x2="2.48" y2="25"/><line class="cls-2" x1="-70.96" y1="21" x2="2.48" y2="21"/><line class="cls-2" x1="-70.96" y1="17" x2="2.48" y2="17"/><line class="cls-2" x1="-70.96" y1="13" x2="2.48" y2="13"/><line class="cls-2" x1="-70.96" y1="9" x2="2.48" y2="9"/><line class="cls-2" x1="-70.96" y1="5" x2="2.48" y2="5"/><line class="cls-2" x1="-70.96" y1="1" x2="2.48" y2="1"/></pattern></defs><title>Asset 5</title><g id="Layer_2" data-name="Layer 2"><g id="Layer_1-2" data-name="Layer 1"><rect class="cls-3" width="124.94" height="124.94"/></g></g></svg>