<svg xmlns="http://www.w3.org/2000/svg" xmlns:xlink="http://www.w3.org/1999/xlink" width="124.94" height="124.94" viewBox="0 0 124.94 124.94"><defs><style>.cls-1{fill:none;}.cls-2{fill:#231f20;}.cls-3{fill:url(#USGS_20_Scrub);}</style><pattern id="USGS_20_Scrub" data-name="USGS 20 Scrub" width="72" height="72" patternUnits="userSpaceOnUse" viewBox="0 0 72 72"><rect class="cls-1" width="72" height="72"/><path class="cls-2" d="M17,74.55a1.3,1.3,0,0,1-.92-2.22,1.35,1.35,0,0,1,1.84,0,1.3,1.3,0,0,1,0,1.84A1.3,1.3,0,0,1,17,74.55Z"/><path class="cls-2" d="M27.75,74.55a1.3,1.3,0,0,1-.92-2.22,1.35,1.35,0,0,1,1.84,0,1.3,1.3,0,0,1-.92,2.22Z"/><path class="cls-2" d="M23.25,7a1.34,1.34,0,0,1-.92-.38,1.3,1.3,0,0,1,0-1.84,1.35,1.35,0,0,1,1.84,0,1.32,1.32,0,0,1,.38.92,1.34,1.34,0,0,1-.38.92A1.32,1.32,0,0,1,23.25,7Z"/><path class="cls-2" d="M14.5,9a1.3,1.3,0,0,1-.92-2.22,1.35,1.35,0,0,1,1.84,0,1.34,1.34,0,0,1,.38.92,1.32,1.32,0,0,1-.38.92A1.3,1.3,0,0,1,14.5,9Z"/><path class="cls-2" d="M14.75,4.8a1.34,1.34,0,0,1-.92-.38,1.3,1.3,0,0,1,0-1.84,1.34,1.34,0,0,1,1.84,0A1.34,1.34,0,0,1,16,3.5a1.3,1.3,0,0,1-1.3,1.3Z"/><path class="cls-2" d="M17.75,8.8a1.3,1.3,0,0,1-.92-2.22,1.35,1.35,0,0,1,1.84,0,1.3,1.3,0,0,1-.92,2.22Z"/><path class="cls-2" d="M20,5.3a1.34,1.34,0,0,1-.92-.38,1.3,1.3,0,0,1,0-1.84,1.35,1.35,0,0,1,1.84,0A1.3,1.3,0,0,1,20,5.3Z"/><path class="cls-2" d="M29,6.3a1.34,1.34,0,0,1-.92-.38,1.3,1.3,0,0,1,0-1.84,1.35,1.35,0,0,1,1.84,0A1.3,1.3,0,0,1,29,6.3Z"/><path class="cls-2" d="M25,4.55a1.34,1.34,0,0,1-.92-.38,1.3,1.3,0,0,1,0-1.84,1.34,1.34,0,0,1,1.84,0A1.3,1.3,0,0,1,25,4.55Z"/><path class="cls-2" d="M17,2.55a1.3,1.3,0,0,1-1.3-1.3,1.32,1.32,0,0,1,.38-.92,1.35,1.35,0,0,1,1.84,0,1.3,1.3,0,0,1,0,1.84A1.3,1.3,0,0,1,17,2.55Z"/><path class="cls-2" d="M27.75,2.55a1.34,1.34,0,0,1-.92-.38,1.34,1.34,0,0,1-.38-.92,1.34,1.34,0,0,1,.38-.92,1.35,1.35,0,0,1,1.84,0,1.3,1.3,0,0,1,0,1.84A1.32,1.32,0,0,1,27.75,2.55Z"/><path class="cls-2" d="M31.75,3.55a1.34,1.34,0,0,1-.92-.38,1.3,1.3,0,0,1,0-1.84,1.35,1.35,0,0,1,1.84,0,1.3,1.3,0,0,1-.92,2.22Z"/><path class="cls-2" d="M29,6.3a1.34,1.34,0,0,1-.92-.38,1.3,1.3,0,0,1,0-1.84,1.35,1.35,0,0,1,1.84,0A1.3,1.3,0,0,1,29,6.3Z"/><path class="cls-2" d="M28.25,9a1.3,1.3,0,0,1-.92-2.22,1.34,1.34,0,0,1,1.84,0A1.3,1.3,0,0,1,28.25,9Z"/><path class="cls-2" d="M26.25,12a1.3,1.3,0,0,1-.92-2.22,1.35,1.35,0,0,1,1.84,0,1.3,1.3,0,0,1,0,1.84A1.32,1.32,0,0,1,26.25,12Z"/><path class="cls-2" d="M22.25,10.3a1.34,1.34,0,0,1-.92-.38,1.3,1.3,0,0,1,0-1.84,1.35,1.35,0,0,1,1.84,0,1.3,1.3,0,0,1-.92,2.22Z"/><path class="cls-2" d="M22,13.8a1.34,1.34,0,0,1-.92-.38,1.3,1.3,0,0,1,0-1.84,1.35,1.35,0,0,1,1.84,0A1.3,1.3,0,0,1,22,13.8Z"/><path class="cls-2" d="M17,12.8a1.34,1.34,0,0,1-.92-.38,1.3,1.3,0,0,1,0-1.84,1.35,1.35,0,0,1,1.84,0A1.3,1.3,0,0,1,17,12.8Z"/><path class="cls-2" d="M20.25,16a1.34,1.34,0,0,1-.92-.38,1.3,1.3,0,0,1,0-1.84,1.35,1.35,0,0,1,1.84,0A1.3,1.3,0,0,1,20.25,16Z"/><path class="cls-2" d="M22.75,19.8a1.34,1.34,0,0,1-.92-.38,1.3,1.3,0,0,1,0-1.84,1.35,1.35,0,0,1,1.84,0,1.3,1.3,0,0,1-.92,2.22Z"/><path class="cls-2" d="M25.5,20.55a1.3,1.3,0,0,1-1.3-1.3,1.34,1.34,0,0,1,.38-.92,1.35,1.35,0,0,1,1.84,0,1.34,1.34,0,0,1,.38.92,1.3,1.3,0,0,1-1.3,1.3Z"/><path class="cls-2" d="M28.5,18.8a1.3,1.3,0,0,1-.92-2.22,1.35,1.35,0,0,1,1.84,0,1.3,1.3,0,0,1,0,1.84A1.3,1.3,0,0,1,28.5,18.8Z"/><path class="cls-2" d="M28,15.55a1.3,1.3,0,0,1-.92-2.22,1.35,1.35,0,0,1,1.84,0A1.3,1.3,0,0,1,28,15.55Z"/><path class="cls-2" d="M30,13.3a1.3,1.3,0,0,1-.92-2.22,1.35,1.35,0,0,1,1.84,0,1.3,1.3,0,0,1,0,1.84A1.3,1.3,0,0,1,30,13.3Z"/><path class="cls-2" d="M34.25,13.3a1.3,1.3,0,0,1-.92-2.22,1.35,1.35,0,0,1,1.84,0,1.3,1.3,0,0,1-.92,2.22Z"/><path class="cls-2" d="M32.5,18a1.34,1.34,0,0,1-.92-.38,1.3,1.3,0,0,1,0-1.84,1.34,1.34,0,0,1,1.84,0A1.3,1.3,0,0,1,32.5,18Z"/><path class="cls-2" d="M34.75,21.55a1.3,1.3,0,0,1-.92-2.22,1.35,1.35,0,0,1,1.84,0,1.34,1.34,0,0,1,.38.92,1.3,1.3,0,0,1-1.3,1.3Z"/><path class="cls-2" d="M31.25,21.8a1.3,1.3,0,0,1-.92-2.22,1.35,1.35,0,0,1,1.84,0,1.3,1.3,0,0,1,0,1.84A1.3,1.3,0,0,1,31.25,21.8Z"/><path class="cls-2" d="M27.75,22.55a1.34,1.34,0,0,1-.92-.38,1.32,1.32,0,0,1-.38-.92,1.34,1.34,0,0,1,.38-.92,1.35,1.35,0,0,1,1.84,0,1.3,1.3,0,0,1-.92,2.22Z"/><path class="cls-2" d="M37.25,17a1.3,1.3,0,0,1-.92-2.22,1.35,1.35,0,0,1,1.84,0,1.3,1.3,0,0,1,0,1.84A1.32,1.32,0,0,1,37.25,17Z"/><path class="cls-2" d="M32,9.8a1.3,1.3,0,0,1-.92-2.22,1.35,1.35,0,0,1,1.84,0,1.3,1.3,0,0,1,0,1.84A1.3,1.3,0,0,1,32,9.8Z"/><path class="cls-2" d="M34,6.8a1.3,1.3,0,0,1-.92-2.22,1.35,1.35,0,0,1,1.84,0,1.3,1.3,0,0,1,0,1.84A1.3,1.3,0,0,1,34,6.8Z"/><path class="cls-2" d="M36.75,3.3A1.3,1.3,0,0,1,35.45,2a1.32,1.32,0,0,1,.38-.92,1.35,1.35,0,0,1,1.84,0,1.3,1.3,0,0,1,0,1.84A1.32,1.32,0,0,1,36.75,3.3Z"/><path class="cls-2" d="M37.5,6.55a1.3,1.3,0,0,1-.92-2.22,1.34,1.34,0,0,1,1.84,0,1.3,1.3,0,0,1,0,1.84A1.32,1.32,0,0,1,37.5,6.55Z"/><path class="cls-2" d="M37.25,9.55a1.34,1.34,0,0,1-.92-.38,1.3,1.3,0,0,1,0-1.84,1.35,1.35,0,0,1,1.84,0,1.3,1.3,0,0,1,0,1.84A1.32,1.32,0,0,1,37.25,9.55Z"/><path class="cls-2" d="M37.5,13.3a1.3,1.3,0,0,1-.92-2.22,1.35,1.35,0,0,1,1.84,0,1.3,1.3,0,0,1,0,1.84A1.32,1.32,0,0,1,37.5,13.3Z"/><path class="cls-2" d="M41,5a1.34,1.34,0,0,1-.92-.38,1.3,1.3,0,0,1,0-1.84,1.35,1.35,0,0,1,1.84,0A1.3,1.3,0,0,1,41,5Z"/><path class="cls-2" d="M41.75,8.8a1.34,1.34,0,0,1-.92-.38,1.3,1.3,0,0,1,0-1.84,1.35,1.35,0,0,1,1.84,0,1.3,1.3,0,0,1-.92,2.22Z"/><path class="cls-2" d="M41.25,12.8a1.34,1.34,0,0,1-.92-.38,1.3,1.3,0,0,1,0-1.84,1.34,1.34,0,0,1,1.84,0,1.32,1.32,0,0,1,.38.92,1.34,1.34,0,0,1-.38.92A1.32,1.32,0,0,1,41.25,12.8Z"/><path class="cls-2" d="M41.5,17.3a1.34,1.34,0,0,1-.92-.38,1.3,1.3,0,0,1,0-1.84,1.35,1.35,0,0,1,1.84,0,1.3,1.3,0,0,1-.92,2.22Z"/><path class="cls-2" d="M43,20.8a1.34,1.34,0,0,1-.92-.38,1.3,1.3,0,0,1,0-1.84,1.34,1.34,0,0,1,1.84,0A1.3,1.3,0,0,1,43,20.8Z"/><path class="cls-2" d="M38.25,20.55a1.34,1.34,0,0,1-.92-.38,1.3,1.3,0,0,1,0-1.84,1.35,1.35,0,0,1,1.84,0,1.3,1.3,0,0,1-.92,2.22Z"/><path class="cls-2" d="M39.5,25a1.34,1.34,0,0,1-.92-.38,1.3,1.3,0,0,1,0-1.84,1.35,1.35,0,0,1,1.84,0A1.3,1.3,0,0,1,39.5,25Z"/><path class="cls-2" d="M35.25,24.8a1.34,1.34,0,0,1-.92-.38,1.3,1.3,0,0,1,0-1.84,1.35,1.35,0,0,1,1.84,0,1.3,1.3,0,0,1-.92,2.22Z"/><path class="cls-2" d="M47,22.3a1.3,1.3,0,0,1-.92-2.22,1.35,1.35,0,0,1,1.84,0,1.3,1.3,0,0,1,0,1.84A1.3,1.3,0,0,1,47,22.3Z"/><path class="cls-2" d="M46,18.8a1.34,1.34,0,0,1-.92-.38,1.3,1.3,0,0,1,0-1.84,1.35,1.35,0,0,1,1.84,0A1.3,1.3,0,0,1,46,18.8Z"/><path class="cls-2" d="M45,15.3a1.3,1.3,0,0,1-.92-2.22,1.35,1.35,0,0,1,1.84,0,1.3,1.3,0,0,1,0,1.84A1.3,1.3,0,0,1,45,15.3Z"/><path class="cls-2" d="M45.25,11.3a1.3,1.3,0,0,1-.92-2.22,1.35,1.35,0,0,1,1.84,0,1.3,1.3,0,0,1-.92,2.22Z"/><path class="cls-2" d="M45,7a1.34,1.34,0,0,1-.92-.38,1.3,1.3,0,0,1,0-1.84,1.35,1.35,0,0,1,1.84,0A1.3,1.3,0,0,1,45,7Z"/><path class="cls-2" d="M44.75,3.8a1.3,1.3,0,0,1-.92-2.22,1.35,1.35,0,0,1,1.84,0,1.3,1.3,0,0,1,0,1.84A1.3,1.3,0,0,1,44.75,3.8Z"/><path class="cls-2" d="M49.75,2.8a1.34,1.34,0,0,1-.92-.38,1.3,1.3,0,0,1,0-1.84,1.35,1.35,0,0,1,1.84,0,1.3,1.3,0,0,1,0,1.84A1.32,1.32,0,0,1,49.75,2.8Z"/><path class="cls-2" d="M49,7a1.3,1.3,0,0,1-.92-2.22,1.35,1.35,0,0,1,1.84,0A1.3,1.3,0,0,1,49,7Z"/><path class="cls-2" d="M52.5,7a1.34,1.34,0,0,1-.92-.38,1.32,1.32,0,0,1-.38-.92,1.34,1.34,0,0,1,.38-.92,1.35,1.35,0,0,1,1.84,0A1.3,1.3,0,0,1,52.5,7Z"/><path class="cls-2" d="M52.25,10.55a1.34,1.34,0,0,1-.92-.38,1.32,1.32,0,0,1-.38-.92,1.34,1.34,0,0,1,.38-.92,1.35,1.35,0,0,1,1.84,0,1.3,1.3,0,0,1,0,1.84A1.32,1.32,0,0,1,52.25,10.55Z"/><path class="cls-2" d="M48.5,10.3a1.34,1.34,0,0,1-.92-.38,1.3,1.3,0,0,1,0-1.84,1.35,1.35,0,0,1,1.84,0A1.32,1.32,0,0,1,49.8,9a1.3,1.3,0,0,1-.38.92A1.32,1.32,0,0,1,48.5,10.3Z"/><path class="cls-2" d="M48.75,14.8a1.34,1.34,0,0,1-.92-.38,1.3,1.3,0,0,1,0-1.84,1.35,1.35,0,0,1,1.84,0,1.3,1.3,0,0,1-.92,2.22Z"/><path class="cls-2" d="M52.25,14.8a1.34,1.34,0,0,1-.92-.38,1.3,1.3,0,0,1,0-1.84,1.35,1.35,0,0,1,1.84,0,1.28,1.28,0,0,1,.38.92,1.3,1.3,0,0,1-1.3,1.3Z"/><path class="cls-2" d="M49.5,18.3a1.34,1.34,0,0,1-.92-.38,1.3,1.3,0,0,1,0-1.84,1.35,1.35,0,0,1,1.84,0,1.3,1.3,0,0,1-.92,2.22Z"/><path class="cls-2" d="M51,22.55a1.34,1.34,0,0,1-.92-.38,1.32,1.32,0,0,1-.38-.92,1.34,1.34,0,0,1,.38-.92,1.35,1.35,0,0,1,1.84,0A1.3,1.3,0,0,1,51,22.55Z"/><path class="cls-2" d="M52.75,25.8a1.34,1.34,0,0,1-.92-.38,1.3,1.3,0,0,1,0-1.84,1.35,1.35,0,0,1,1.84,0,1.3,1.3,0,0,1-.92,2.22Z"/><path class="cls-2" d="M55.25,23a1.3,1.3,0,0,1-.92-2.22,1.35,1.35,0,0,1,1.84,0,1.3,1.3,0,0,1,0,1.84A1.3,1.3,0,0,1,55.25,23Z"/><path class="cls-2" d="M53.75,19.55a1.34,1.34,0,0,1-.92-.38,1.3,1.3,0,0,1,0-1.84,1.35,1.35,0,0,1,1.84,0,1.3,1.3,0,0,1-.92,2.22Z"/><path class="cls-2" d="M56,16.55a1.34,1.34,0,0,1-.92-.38,1.3,1.3,0,0,1,0-1.84,1.35,1.35,0,0,1,1.84,0A1.3,1.3,0,0,1,56,16.55Z"/><path class="cls-2" d="M56.25,12.3a1.3,1.3,0,0,1-.92-2.22,1.35,1.35,0,0,1,1.84,0,1.3,1.3,0,0,1-.92,2.22Z"/><path class="cls-2" d="M56.5,7.3a1.3,1.3,0,0,1-.92-2.22,1.35,1.35,0,0,1,1.84,0A1.3,1.3,0,0,1,56.5,7.3Z"/><path class="cls-2" d="M59.75,8.3a1.3,1.3,0,0,1-.92-2.22,1.35,1.35,0,0,1,1.84,0,1.3,1.3,0,0,1-.92,2.22Z"/><path class="cls-2" d="M58,3.8a1.3,1.3,0,0,1-.92-2.22,1.35,1.35,0,0,1,1.84,0,1.3,1.3,0,0,1,0,1.84A1.3,1.3,0,0,1,58,3.8Z"/><path class="cls-2" d="M61.75,4.8a1.34,1.34,0,0,1-.92-.38,1.3,1.3,0,0,1,0-1.84,1.35,1.35,0,0,1,1.84,0,1.3,1.3,0,0,1-.92,2.22Z"/><path class="cls-2" d="M65,3a1.34,1.34,0,0,1-.92-.38,1.3,1.3,0,0,1,0-1.84,1.35,1.35,0,0,1,1.84,0,1.3,1.3,0,0,1,0,1.84A1.32,1.32,0,0,1,65,3Z"/><path class="cls-2" d="M67,5a1.3,1.3,0,0,1-.92-2.22,1.34,1.34,0,0,1,1.84,0A1.3,1.3,0,0,1,67,5Z"/><path class="cls-2" d="M63.5,8a1.34,1.34,0,0,1-.92-.38,1.3,1.3,0,0,1,0-1.84,1.35,1.35,0,0,1,1.84,0A1.3,1.3,0,0,1,63.5,8Z"/><path class="cls-2" d="M62.75,11.8a1.34,1.34,0,0,1-.92-.38,1.32,1.32,0,0,1-.38-.92,1.34,1.34,0,0,1,.38-.92,1.35,1.35,0,0,1,1.84,0,1.3,1.3,0,0,1-.92,2.22Z"/><path class="cls-2" d="M60,14a1.34,1.34,0,0,1-.92-.38,1.3,1.3,0,0,1,0-1.84,1.35,1.35,0,0,1,1.84,0A1.3,1.3,0,0,1,60,14Z"/><path class="cls-2" d="M62.5,16.8a1.34,1.34,0,0,1-.92-.38,1.3,1.3,0,0,1,0-1.84,1.35,1.35,0,0,1,1.84,0,1.3,1.3,0,0,1-.92,2.22Z"/><path class="cls-2" d="M66.25,17.8a1.34,1.34,0,0,1-.92-.38,1.3,1.3,0,0,1,0-1.84,1.35,1.35,0,0,1,1.84,0,1.3,1.3,0,0,1-.92,2.22Z"/><path class="cls-2" d="M64.25,20a1.34,1.34,0,0,1-.92-.38,1.3,1.3,0,0,1,0-1.84,1.35,1.35,0,0,1,1.84,0A1.3,1.3,0,0,1,64.25,20Z"/><path class="cls-2" d="M60.75,20.55a1.34,1.34,0,0,1-.92-.38,1.3,1.3,0,0,1,0-1.84,1.35,1.35,0,0,1,1.84,0,1.3,1.3,0,0,1-.92,2.22Z"/><path class="cls-2" d="M58,20a1.34,1.34,0,0,1-.92-.38,1.3,1.3,0,0,1,0-1.84,1.35,1.35,0,0,1,1.84,0A1.3,1.3,0,0,1,58,20Z"/><path class="cls-2" d="M59.75,24.3a1.32,1.32,0,0,1-.92-.38,1.3,1.3,0,0,1,0-1.84,1.35,1.35,0,0,1,1.84,0,1.3,1.3,0,0,1,0,1.84A1.3,1.3,0,0,1,59.75,24.3Z"/><path class="cls-2" d="M64.25,23a1.34,1.34,0,0,1-.92-.38,1.3,1.3,0,0,1,0-1.84,1.35,1.35,0,0,1,1.84,0A1.3,1.3,0,0,1,64.25,23Z"/><path class="cls-2" d="M68.5,24a1.32,1.32,0,0,1-.92-.38,1.3,1.3,0,0,1,1.84-1.84A1.3,1.3,0,0,1,68.5,24Z"/><path class="cls-2" d="M68.5,20.55a1.3,1.3,0,0,1-.92-2.22,1.34,1.34,0,0,1,1.84,0,1.3,1.3,0,0,1-.92,2.22Z"/><path class="cls-2" d="M65.5,13.8a1.34,1.34,0,0,1-.92-.38,1.3,1.3,0,0,1,0-1.84,1.35,1.35,0,0,1,1.84,0,1.3,1.3,0,0,1-.92,2.22Z"/><path class="cls-2" d="M66.25,10a1.34,1.34,0,0,1-.92-.38,1.3,1.3,0,0,1,0-1.84,1.34,1.34,0,0,1,1.84,0A1.3,1.3,0,0,1,66.25,10Z"/><path class="cls-2" d="M69.75,8a1.34,1.34,0,0,1-.92-.38,1.32,1.32,0,0,1-.38-.92,1.3,1.3,0,0,1,2.22-.92A1.3,1.3,0,0,1,69.75,8Z"/><path class="cls-2" d="M70.75,3.3a1.34,1.34,0,0,1-.92-.38A1.34,1.34,0,0,1,69.45,2a1.32,1.32,0,0,1,.38-.92,1.35,1.35,0,0,1,1.84,0,1.3,1.3,0,0,1,0,1.84A1.32,1.32,0,0,1,70.75,3.3Z"/><path class="cls-2" d="M69.75,14.55a1.3,1.3,0,0,1-.92-2.22,1.35,1.35,0,0,1,1.84,0,1.3,1.3,0,0,1-.92,2.22Z"/><path class="cls-2" d="M71.5,18a1.34,1.34,0,0,1-.92-.38,1.3,1.3,0,0,1,0-1.84,1.35,1.35,0,0,1,1.84,0A1.3,1.3,0,0,1,71.5,18Z"/><path class="cls-2" d="M56.5,7.3a1.3,1.3,0,0,1-.92-2.22,1.35,1.35,0,0,1,1.84,0A1.3,1.3,0,0,1,56.5,7.3Z"/><path class="cls-2" d="M58,3.8a1.3,1.3,0,0,1-.92-2.22,1.35,1.35,0,0,1,1.84,0,1.3,1.3,0,0,1,0,1.84A1.3,1.3,0,0,1,58,3.8Z"/><path class="cls-2" d="M54,4.55a1.3,1.3,0,0,1-.92-2.22,1.35,1.35,0,0,1,1.84,0A1.3,1.3,0,0,1,54,4.55Z"/><path class="cls-2" d="M24,24a1.34,1.34,0,0,1-.92-.38,1.3,1.3,0,0,1,0-1.84,1.35,1.35,0,0,1,1.84,0A1.3,1.3,0,0,1,24,24Z"/><path class="cls-2" d="M20,21.3a1.34,1.34,0,0,1-.92-.38A1.32,1.32,0,0,1,18.7,20a1.34,1.34,0,0,1,.38-.92,1.35,1.35,0,0,1,1.84,0,1.34,1.34,0,0,1,.38.92,1.32,1.32,0,0,1-.38.92A1.3,1.3,0,0,1,20,21.3Z"/><path class="cls-2" d="M16,22.3A1.3,1.3,0,0,1,14.7,21a1.34,1.34,0,0,1,.38-.92,1.35,1.35,0,0,1,1.84,0,1.34,1.34,0,0,1,.38.92A1.3,1.3,0,0,1,16,22.3Z"/><path class="cls-2" d="M17,18.3a1.34,1.34,0,0,1-.92-.38,1.3,1.3,0,0,1,0-1.84,1.35,1.35,0,0,1,1.84,0A1.3,1.3,0,0,1,17,18.3Z"/><path class="cls-2" d="M14.75,15.3a1.34,1.34,0,0,1-.92-.38,1.32,1.32,0,0,1-.38-.92,1.3,1.3,0,1,1,2.22.92A1.32,1.32,0,0,1,14.75,15.3Z"/><path class="cls-2" d="M12.5,12.55a1.34,1.34,0,0,1-.92-.38,1.32,1.32,0,0,1-.38-.92,1.34,1.34,0,0,1,.38-.92,1.35,1.35,0,0,1,1.84,0,1.3,1.3,0,0,1-.92,2.22Z"/><path class="cls-2" d="M12.5,18.8a1.3,1.3,0,0,1-.92-2.22,1.35,1.35,0,0,1,1.84,0,1.3,1.3,0,0,1,0,1.84A1.3,1.3,0,0,1,12.5,18.8Z"/><path class="cls-2" d="M16,22.3A1.3,1.3,0,0,1,14.7,21a1.34,1.34,0,0,1,.38-.92,1.35,1.35,0,0,1,1.84,0,1.34,1.34,0,0,1,.38.92A1.3,1.3,0,0,1,16,22.3Z"/><path class="cls-2" d="M18.5,24.55a1.34,1.34,0,0,1-.92-.38,1.3,1.3,0,0,1,0-1.84,1.34,1.34,0,0,1,1.84,0,1.32,1.32,0,0,1,.38.92,1.34,1.34,0,0,1-.38.92A1.32,1.32,0,0,1,18.5,24.55Z"/><path class="cls-2" d="M14,26a1.3,1.3,0,0,1-.92-2.22,1.34,1.34,0,0,1,1.84,0A1.3,1.3,0,0,1,14,26Z"/><path class="cls-2" d="M11.5,23a1.34,1.34,0,0,1-.92-.38,1.32,1.32,0,0,1-.38-.92,1.34,1.34,0,0,1,.38-.92,1.35,1.35,0,0,1,1.84,0,1.34,1.34,0,0,1,.38.92A1.3,1.3,0,0,1,11.5,23Z"/><path class="cls-2" d="M24,16.55a1.3,1.3,0,0,1-.92-2.22,1.35,1.35,0,0,1,1.84,0,1.3,1.3,0,0,1,0,1.84A1.3,1.3,0,0,1,24,16.55Z"/><path class="cls-2" d="M2,7A1.3,1.3,0,0,1,.7,5.75a1.34,1.34,0,0,1,.38-.92,1.34,1.34,0,0,1,1.84,0,1.34,1.34,0,0,1,.38.92A1.3,1.3,0,0,1,2,7Z"/><path class="cls-2" d="M3.25,16.55a1.3,1.3,0,0,1-.92-2.22,1.34,1.34,0,0,1,1.84,0,1.3,1.3,0,0,1-.92,2.22Z"/><path class="cls-2" d="M5.25,19.8a1.3,1.3,0,0,1-.92-2.22,1.34,1.34,0,0,1,1.84,0,1.29,1.29,0,0,1,.38.92,1.28,1.28,0,0,1-.38.92A1.32,1.32,0,0,1,5.25,19.8Z"/><path class="cls-2" d="M3.75,13a1.34,1.34,0,0,1-.92-.38,1.3,1.3,0,0,1,0-1.84,1.35,1.35,0,0,1,1.84,0A1.3,1.3,0,0,1,3.75,13Z"/><path class="cls-2" d="M9,5.8a1.34,1.34,0,0,1-.92-.38,1.3,1.3,0,0,1,0-1.84,1.35,1.35,0,0,1,1.84,0A1.3,1.3,0,0,1,9,5.8Z"/><path class="cls-2" d="M5.75,6.3a1.34,1.34,0,0,1-.92-.38,1.3,1.3,0,0,1,0-1.84,1.35,1.35,0,0,1,1.84,0A1.32,1.32,0,0,1,7,5a1.34,1.34,0,0,1-.38.92A1.32,1.32,0,0,1,5.75,6.3Z"/><path class="cls-2" d="M6,9.55a1.34,1.34,0,0,1-.92-.38,1.3,1.3,0,0,1,0-1.84,1.3,1.3,0,0,1,2.22.92A1.3,1.3,0,0,1,6,9.55Z"/><path class="cls-2" d="M10.75,8.8a1.34,1.34,0,0,1-.92-.38,1.32,1.32,0,0,1-.38-.92,1.34,1.34,0,0,1,.38-.92,1.35,1.35,0,0,1,1.84,0A1.34,1.34,0,0,1,12,7.5a1.3,1.3,0,0,1-1.3,1.3Z"/><path class="cls-2" d="M3.75,3.55a1.3,1.3,0,0,1-1.3-1.3,1.32,1.32,0,0,1,.38-.92,1.35,1.35,0,0,1,1.84,0,1.3,1.3,0,0,1,0,1.84A1.32,1.32,0,0,1,3.75,3.55Z"/><path class="cls-2" d="M7,14.3a1.34,1.34,0,0,1-.92-.38,1.3,1.3,0,0,1,0-1.84,1.35,1.35,0,0,1,1.84,0,1.3,1.3,0,0,1,0,1.84A1.32,1.32,0,0,1,7,14.3Z"/><path class="cls-2" d="M9.75,12a1.3,1.3,0,0,1-1.3-1.3,1.32,1.32,0,0,1,.38-.92,1.35,1.35,0,0,1,1.84,0A1.3,1.3,0,0,1,9.75,12Z"/><path class="cls-2" d="M9.75,16a1.3,1.3,0,0,1-1.3-1.3,1.32,1.32,0,0,1,.38-.92,1.35,1.35,0,0,1,1.84,0,1.32,1.32,0,0,1,.38.92,1.34,1.34,0,0,1-.38.92A1.32,1.32,0,0,1,9.75,16Z"/><path class="cls-2" d="M12.5,18.8a1.3,1.3,0,0,1-.92-2.22,1.35,1.35,0,0,1,1.84,0,1.3,1.3,0,0,1,0,1.84A1.3,1.3,0,0,1,12.5,18.8Z"/><path class="cls-2" d="M8.25,20.55a1.34,1.34,0,0,1-.92-.38,1.32,1.32,0,0,1-.38-.92,1.34,1.34,0,0,1,.38-.92,1.35,1.35,0,0,1,1.84,0,1.34,1.34,0,0,1,.38.92,1.3,1.3,0,0,1-1.3,1.3Z"/><path class="cls-2" d="M5.75,26a1.34,1.34,0,0,1-.92-.38,1.3,1.3,0,0,1,0-1.84,1.35,1.35,0,0,1,1.84,0,1.32,1.32,0,0,1,.38.92,1.34,1.34,0,0,1-.38.92A1.32,1.32,0,0,1,5.75,26Z"/><path class="cls-2" d="M5,23a1.3,1.3,0,0,1-.92-2.22,1.35,1.35,0,0,1,1.84,0,1.3,1.3,0,0,1,0,1.84A1.32,1.32,0,0,1,5,23Z"/><path class="cls-2" d="M15,71.8a1.34,1.34,0,0,1-.92-.38,1.3,1.3,0,0,1,0-1.84,1.35,1.35,0,0,1,1.84,0,1.34,1.34,0,0,1,.38.92A1.3,1.3,0,0,1,15,71.8Z"/><path class="cls-2" d="M15,71.8a1.34,1.34,0,0,1-.92-.38,1.3,1.3,0,0,1,0-1.84,1.35,1.35,0,0,1,1.84,0,1.34,1.34,0,0,1,.38.92A1.3,1.3,0,0,1,15,71.8Z"/><path class="cls-2" d="M18.5,70.8a1.34,1.34,0,0,1-.92-.38,1.3,1.3,0,0,1,0-1.84,1.35,1.35,0,0,1,1.84,0,1.3,1.3,0,0,1-.92,2.22Z"/><path class="cls-2" d="M24,71.8a1.34,1.34,0,0,1-.92-.38,1.3,1.3,0,0,1,0-1.84,1.35,1.35,0,0,1,1.84,0,1.3,1.3,0,0,1,0,1.84A1.3,1.3,0,0,1,24,71.8Z"/><path class="cls-2" d="M29.25,71.3a1.3,1.3,0,0,1-.92-2.22,1.35,1.35,0,0,1,1.84,0,1.3,1.3,0,0,1,0,1.84A1.3,1.3,0,0,1,29.25,71.3Z"/><path class="cls-2" d="M32.75,71.8a1.34,1.34,0,0,1-.92-.38,1.3,1.3,0,0,1,0-1.84,1.35,1.35,0,0,1,1.84,0,1.32,1.32,0,0,1,.38.92,1.34,1.34,0,0,1-.38.92A1.32,1.32,0,0,1,32.75,71.8Z"/><path class="cls-2" d="M37.75,71.3a1.34,1.34,0,0,1-.92-.38,1.3,1.3,0,0,1,0-1.84,1.35,1.35,0,0,1,1.84,0,1.3,1.3,0,0,1-.92,2.22Z"/><path class="cls-2" d="M45,68.55a1.3,1.3,0,0,1-.92-2.22,1.35,1.35,0,0,1,1.84,0A1.3,1.3,0,0,1,45,68.55Z"/><path class="cls-2" d="M49.75,70.3a1.34,1.34,0,0,1-.92-.38,1.3,1.3,0,0,1,0-1.84,1.35,1.35,0,0,1,1.84,0,1.3,1.3,0,0,1-.92,2.22Z"/><path class="cls-2" d="M59.75,71.8a1.3,1.3,0,1,1,.92-2.22,1.3,1.3,0,0,1-.92,2.22Z"/><path class="cls-2" d="M67.75,72.55a1.3,1.3,0,0,1-.92-2.22,1.35,1.35,0,0,1,1.84,0,1.3,1.3,0,0,1,0,1.84A1.3,1.3,0,0,1,67.75,72.55Z"/><path class="cls-2" d="M55,73.55a1.3,1.3,0,0,1-.92-2.22,1.35,1.35,0,0,1,1.84,0A1.3,1.3,0,0,1,55,73.55Z"/><path class="cls-2" d="M53.75,69.8a1.3,1.3,0,0,1-.92-2.22,1.35,1.35,0,0,1,1.84,0,1.3,1.3,0,0,1-.92,2.22Z"/><path class="cls-2" d="M10.25,70.8a1.34,1.34,0,0,1-.92-.38,1.3,1.3,0,0,1,0-1.84,1.35,1.35,0,0,1,1.84,0,1.3,1.3,0,0,1-.92,2.22Z"/><path class="cls-2" d="M5.75,71a1.3,1.3,0,0,1-.92-2.22A1.3,1.3,0,0,1,7,69.75,1.3,1.3,0,0,1,5.75,71Z"/><path class="cls-2" d="M22,26.8a1.34,1.34,0,0,1-.92-.38,1.3,1.3,0,0,1,0-1.84,1.35,1.35,0,0,1,1.84,0,1.3,1.3,0,0,1,0,1.84A1.3,1.3,0,0,1,22,26.8Z"/><path class="cls-2" d="M26.5,27.8a1.34,1.34,0,0,1-.92-.38,1.3,1.3,0,0,1,0-1.84,1.35,1.35,0,0,1,1.84,0,1.34,1.34,0,0,1,.38.92,1.3,1.3,0,0,1-1.3,1.3Z"/><path class="cls-2" d="M30.25,25.8a1.34,1.34,0,0,1-.92-.38,1.3,1.3,0,0,1,0-1.84,1.35,1.35,0,0,1,1.84,0,1.3,1.3,0,0,1-.92,2.22Z"/><path class="cls-2" d="M29,29.8a1.3,1.3,0,0,1-.92-2.22,1.35,1.35,0,0,1,1.84,0,1.3,1.3,0,0,1,0,1.84A1.3,1.3,0,0,1,29,29.8Z"/><path class="cls-2" d="M26.25,31.8a1.34,1.34,0,0,1-.92-.38,1.3,1.3,0,0,1,0-1.84,1.34,1.34,0,0,1,1.84,0,1.3,1.3,0,0,1-.92,2.22Z"/><path class="cls-2" d="M22.75,31a1.3,1.3,0,0,1-.92-2.22,1.34,1.34,0,0,1,1.84,0,1.3,1.3,0,0,1,0,1.84A1.3,1.3,0,0,1,22.75,31Z"/><path class="cls-2" d="M19.5,31.8a1.34,1.34,0,0,1-.92-.38,1.3,1.3,0,0,1,0-1.84,1.34,1.34,0,0,1,1.84,0,1.3,1.3,0,0,1-.92,2.22Z"/><path class="cls-2" d="M18,28a1.3,1.3,0,0,1-.92-2.22,1.35,1.35,0,0,1,1.84,0A1.3,1.3,0,0,1,18,28Z"/><path class="cls-2" d="M16,30.55a1.3,1.3,0,0,1-.92-2.22,1.35,1.35,0,0,1,1.84,0,1.3,1.3,0,0,1,0,1.84A1.3,1.3,0,0,1,16,30.55Z"/><path class="cls-2" d="M12.75,29.3a1.34,1.34,0,0,1-.92-.38,1.3,1.3,0,0,1,0-1.84A1.3,1.3,0,0,1,14,28a1.3,1.3,0,0,1-1.3,1.3Z"/><path class="cls-2" d="M9.5,30.8a1.34,1.34,0,0,1-.92-.38,1.32,1.32,0,0,1-.38-.92,1.34,1.34,0,0,1,.38-.92,1.35,1.35,0,0,1,1.84,0,1.29,1.29,0,0,1,.38.92,1.28,1.28,0,0,1-.38.92A1.32,1.32,0,0,1,9.5,30.8Z"/><path class="cls-2" d="M8.5,34a1.34,1.34,0,0,1-.92-.38,1.3,1.3,0,0,1,0-1.84,1.35,1.35,0,0,1,1.84,0A1.3,1.3,0,0,1,8.5,34Z"/><path class="cls-2" d="M10,38.3a1.34,1.34,0,0,1-.92-.38,1.3,1.3,0,0,1,0-1.84,1.35,1.35,0,0,1,1.84,0A1.3,1.3,0,0,1,10,38.3Z"/><path class="cls-2" d="M12.5,35.8a1.34,1.34,0,0,1-.92-.38,1.3,1.3,0,0,1,0-1.84,1.35,1.35,0,0,1,1.84,0,1.3,1.3,0,0,1-.92,2.22Z"/><path class="cls-2" d="M15.25,33.3a1.3,1.3,0,0,1-.92-2.22,1.35,1.35,0,0,1,1.84,0,1.3,1.3,0,0,1-.92,2.22Z"/><path class="cls-2" d="M19,35.55a1.34,1.34,0,0,1-.92-.38,1.3,1.3,0,0,1,0-1.84,1.35,1.35,0,0,1,1.84,0A1.3,1.3,0,0,1,19,35.55Z"/><path class="cls-2" d="M16,38a1.34,1.34,0,0,1-.92-.38,1.3,1.3,0,0,1,0-1.84,1.35,1.35,0,0,1,1.84,0A1.3,1.3,0,0,1,16,38Z"/><path class="cls-2" d="M13,40.8a1.34,1.34,0,0,1-.92-.38,1.3,1.3,0,0,1,0-1.84,1.35,1.35,0,0,1,1.84,0A1.3,1.3,0,0,1,13,40.8Z"/><path class="cls-2" d="M9.75,42.55a1.3,1.3,0,0,1-1.3-1.3,1.32,1.32,0,0,1,.38-.92,1.35,1.35,0,0,1,1.84,0,1.32,1.32,0,0,1,.38.92,1.34,1.34,0,0,1-.38.92A1.32,1.32,0,0,1,9.75,42.55Z"/><path class="cls-2" d="M10,38.3a1.34,1.34,0,0,1-.92-.38,1.3,1.3,0,0,1,0-1.84,1.35,1.35,0,0,1,1.84,0A1.3,1.3,0,0,1,10,38.3Z"/><path class="cls-2" d="M6.75,39.8a1.34,1.34,0,0,1-.92-.38,1.3,1.3,0,0,1,0-1.84,1.35,1.35,0,0,1,1.84,0,1.3,1.3,0,0,1-.92,2.22Z"/><path class="cls-2" d="M5.75,35.3a1.3,1.3,0,0,1-.92-2.22,1.35,1.35,0,0,1,1.84,0A1.34,1.34,0,0,1,7,34a1.3,1.3,0,0,1-1.3,1.3Z"/><path class="cls-2" d="M5.5,30a1.34,1.34,0,0,1-.92-.38,1.3,1.3,0,0,1,0-1.84,1.35,1.35,0,0,1,1.84,0A1.3,1.3,0,0,1,5.5,30Z"/><path class="cls-2" d="M2.5,32a1.34,1.34,0,0,1-.92-.38,1.3,1.3,0,0,1,0-1.84,1.35,1.35,0,0,1,1.84,0,1.3,1.3,0,0,1,0,1.84A1.32,1.32,0,0,1,2.5,32Z"/><path class="cls-2" d="M1.75,36a1.34,1.34,0,0,1-.92-.38,1.3,1.3,0,0,1,0-1.84,1.35,1.35,0,0,1,1.84,0A1.3,1.3,0,0,1,1.75,36Z"/><path class="cls-2" d="M1.75,27.55a1.34,1.34,0,0,1-.92-.38,1.3,1.3,0,0,1,0-1.84,1.35,1.35,0,0,1,1.84,0,1.3,1.3,0,0,1-.92,2.22Z"/><path class="cls-2" d="M3,39.55a1.3,1.3,0,0,1-.92-2.22,1.34,1.34,0,0,1,1.84,0A1.3,1.3,0,0,1,3,39.55Z"/><path class="cls-2" d="M3.5,43.3a1.34,1.34,0,0,1-.92-.38,1.3,1.3,0,0,1,0-1.84,1.35,1.35,0,0,1,1.84,0A1.3,1.3,0,0,1,3.5,43.3Z"/><path class="cls-2" d="M2.75,49.3a1.34,1.34,0,0,1-.92-.38A1.32,1.32,0,0,1,1.45,48a1.34,1.34,0,0,1,.38-.92,1.35,1.35,0,0,1,1.84,0,1.3,1.3,0,0,1-.92,2.22Z"/><path class="cls-2" d="M3.75,52.3a1.34,1.34,0,0,1-.92-.38A1.32,1.32,0,0,1,2.45,51a1.34,1.34,0,0,1,.38-.92,1.35,1.35,0,0,1,1.84,0A1.34,1.34,0,0,1,5,51a1.3,1.3,0,0,1-1.3,1.3Z"/><path class="cls-2" d="M7.25,50.3a1.34,1.34,0,0,1-.92-.38,1.3,1.3,0,0,1,0-1.84,1.35,1.35,0,0,1,1.84,0,1.3,1.3,0,0,1-.92,2.22Z"/><path class="cls-2" d="M5.5,46.3a1.3,1.3,0,0,1-.92-2.22,1.35,1.35,0,0,1,1.84,0A1.34,1.34,0,0,1,6.8,45a1.3,1.3,0,0,1-1.3,1.3Z"/><path class="cls-2" d="M9.5,46.8a1.34,1.34,0,0,1-.92-.38,1.3,1.3,0,0,1,0-1.84,1.35,1.35,0,0,1,1.84,0,1.29,1.29,0,0,1,.38.92,1.3,1.3,0,0,1-1.3,1.3Z"/><path class="cls-2" d="M12,49.8a1.34,1.34,0,0,1-.92-.38,1.32,1.32,0,0,1-.38-.92,1.34,1.34,0,0,1,.38-.92,1.35,1.35,0,0,1,1.84,0,1.34,1.34,0,0,1,.38.92A1.3,1.3,0,0,1,12,49.8Z"/><path class="cls-2" d="M15,50.8a1.3,1.3,0,0,1-.92-2.22,1.35,1.35,0,0,1,1.84,0A1.3,1.3,0,0,1,15,50.8Z"/><path class="cls-2" d="M17.75,52.3a1.34,1.34,0,0,1-.92-.38,1.3,1.3,0,0,1,0-1.84,1.35,1.35,0,0,1,1.84,0,1.3,1.3,0,0,1-.92,2.22Z"/><path class="cls-2" d="M12.5,45.55a1.34,1.34,0,0,1-.92-.38,1.3,1.3,0,0,1,0-1.84,1.35,1.35,0,0,1,1.84,0,1.3,1.3,0,0,1-.92,2.22Z"/><path class="cls-2" d="M16,46.8a1.34,1.34,0,0,1-.92-.38,1.3,1.3,0,0,1,0-1.84,1.35,1.35,0,0,1,1.84,0A1.3,1.3,0,0,1,16,46.8Z"/><path class="cls-2" d="M19.25,47.8a1.3,1.3,0,0,1-1.3-1.3,1.34,1.34,0,0,1,.38-.92,1.35,1.35,0,0,1,1.84,0,1.34,1.34,0,0,1,.38.92,1.32,1.32,0,0,1-.38.92A1.3,1.3,0,0,1,19.25,47.8Z"/><path class="cls-2" d="M16.25,42.3a1.3,1.3,0,0,1-.92-2.22,1.35,1.35,0,0,1,1.84,0,1.3,1.3,0,0,1-.92,2.22Z"/><path class="cls-2" d="M20.25,43.3a1.34,1.34,0,0,1-.92-.38,1.32,1.32,0,0,1-.38-.92,1.34,1.34,0,0,1,.38-.92,1.35,1.35,0,0,1,1.84,0,1.34,1.34,0,0,1,.38.92,1.3,1.3,0,0,1-1.3,1.3Z"/><path class="cls-2" d="M21,39a1.34,1.34,0,0,1-.92-.38,1.3,1.3,0,0,1,0-1.84,1.35,1.35,0,0,1,1.84,0A1.3,1.3,0,0,1,21,39Z"/><path class="cls-2" d="M23.5,42a1.3,1.3,0,0,1-.92-2.22,1.34,1.34,0,0,1,1.84,0,1.3,1.3,0,0,1,0,1.84A1.3,1.3,0,0,1,23.5,42Z"/><path class="cls-2" d="M26.25,39.55a1.3,1.3,0,0,1-1.3-1.3,1.34,1.34,0,0,1,.38-.92,1.35,1.35,0,0,1,1.84,0,1.34,1.34,0,0,1,.38.92,1.3,1.3,0,0,1-1.3,1.3Z"/><path class="cls-2" d="M22.5,46a1.34,1.34,0,0,1-.92-.38,1.3,1.3,0,0,1,0-1.84,1.35,1.35,0,0,1,1.84,0A1.3,1.3,0,0,1,22.5,46Z"/><path class="cls-2" d="M26,48a1.34,1.34,0,0,1-.92-.38,1.3,1.3,0,0,1,0-1.84,1.35,1.35,0,0,1,1.84,0A1.3,1.3,0,0,1,26,48Z"/><path class="cls-2" d="M26,52a1.3,1.3,0,0,1-.92-2.22,1.35,1.35,0,0,1,1.84,0A1.3,1.3,0,0,1,26,52Z"/><path class="cls-2" d="M22,50.3a1.3,1.3,0,0,1-.92-2.22,1.35,1.35,0,0,1,1.84,0,1.34,1.34,0,0,1,.38.92,1.32,1.32,0,0,1-.38.92A1.3,1.3,0,0,1,22,50.3Z"/><path class="cls-2" d="M29.5,49a1.34,1.34,0,0,1-.92-.38,1.3,1.3,0,0,1,0-1.84,1.35,1.35,0,0,1,1.84,0,1.3,1.3,0,0,1,0,1.84A1.3,1.3,0,0,1,29.5,49Z"/><path class="cls-2" d="M31.5,45.8a1.3,1.3,0,0,1-.92-2.22,1.35,1.35,0,0,1,1.84,0,1.29,1.29,0,0,1,.38.92,1.3,1.3,0,0,1-1.3,1.3Z"/><path class="cls-2" d="M30.25,41.8a1.3,1.3,0,0,1-.92-2.22,1.35,1.35,0,0,1,1.84,0,1.3,1.3,0,0,1-.92,2.22Z"/><path class="cls-2" d="M30.25,37.8a1.34,1.34,0,0,1-.92-.38,1.3,1.3,0,0,1,0-1.84,1.35,1.35,0,0,1,1.84,0,1.3,1.3,0,0,1-.92,2.22Z"/><path class="cls-2" d="M27,36a1.34,1.34,0,0,1-.92-.38,1.3,1.3,0,0,1,0-1.84,1.35,1.35,0,0,1,1.84,0A1.3,1.3,0,0,1,27,36Z"/><path class="cls-2" d="M23.5,36a1.3,1.3,0,0,1-.92-2.22,1.35,1.35,0,0,1,1.84,0,1.3,1.3,0,0,1,0,1.84A1.3,1.3,0,0,1,23.5,36Z"/><path class="cls-2" d="M30,32.55a1.34,1.34,0,0,1-.92-.38,1.3,1.3,0,0,1,0-1.84,1.35,1.35,0,0,1,1.84,0,1.34,1.34,0,0,1,.38.92,1.3,1.3,0,0,1-1.3,1.3Z"/><path class="cls-2" d="M33,35.3a1.34,1.34,0,0,1-.92-.38A1.32,1.32,0,0,1,31.7,34a1.34,1.34,0,0,1,.38-.92,1.35,1.35,0,0,1,1.84,0A1.3,1.3,0,0,1,33,35.3Z"/><path class="cls-2" d="M36,35.8a1.34,1.34,0,0,1-.92-.38,1.3,1.3,0,0,1,0-1.84,1.35,1.35,0,0,1,1.84,0A1.3,1.3,0,0,1,36,35.8Z"/><path class="cls-2" d="M33.5,39.8a1.34,1.34,0,0,1-.92-.38,1.32,1.32,0,0,1-.38-.92,1.34,1.34,0,0,1,.38-.92,1.35,1.35,0,0,1,1.84,0,1.3,1.3,0,0,1-.92,2.22Z"/><path class="cls-2" d="M34.5,43.55a1.3,1.3,0,0,1-.92-2.22,1.35,1.35,0,0,1,1.84,0,1.3,1.3,0,0,1,0,1.84A1.3,1.3,0,0,1,34.5,43.55Z"/><path class="cls-2" d="M31.5,45.8a1.3,1.3,0,0,1-.92-2.22,1.35,1.35,0,0,1,1.84,0,1.29,1.29,0,0,1,.38.92,1.3,1.3,0,0,1-1.3,1.3Z"/><path class="cls-2" d="M34.75,47.3a1.34,1.34,0,0,1-.92-.38,1.3,1.3,0,0,1,0-1.84,1.34,1.34,0,0,1,1.84,0A1.29,1.29,0,0,1,36,46a1.34,1.34,0,0,1-.38.92A1.32,1.32,0,0,1,34.75,47.3Z"/><path class="cls-2" d="M37.75,51.55a1.3,1.3,0,0,1-.92-2.22,1.34,1.34,0,0,1,1.84,0,1.3,1.3,0,0,1-.92,2.22Z"/><path class="cls-2" d="M32.75,50.55a1.34,1.34,0,0,1-.92-.38,1.3,1.3,0,0,1,0-1.84,1.35,1.35,0,0,1,1.84,0,1.32,1.32,0,0,1,.38.92,1.34,1.34,0,0,1-.38.92A1.32,1.32,0,0,1,32.75,50.55Z"/><path class="cls-2" d="M38.5,47.55a1.34,1.34,0,0,1-.92-.38,1.3,1.3,0,0,1,0-1.84,1.35,1.35,0,0,1,1.84,0,1.3,1.3,0,0,1,0,1.84A1.3,1.3,0,0,1,38.5,47.55Z"/><path class="cls-2" d="M38.25,43a1.3,1.3,0,0,1-.92-2.22,1.35,1.35,0,0,1,1.84,0,1.3,1.3,0,0,1,0,1.84A1.3,1.3,0,0,1,38.25,43Z"/><path class="cls-2" d="M37.5,39.55a1.34,1.34,0,0,1-.92-.38,1.3,1.3,0,0,1,0-1.84,1.35,1.35,0,0,1,1.84,0,1.3,1.3,0,0,1,0,1.84A1.32,1.32,0,0,1,37.5,39.55Z"/><path class="cls-2" d="M33,35.3a1.34,1.34,0,0,1-.92-.38A1.32,1.32,0,0,1,31.7,34a1.34,1.34,0,0,1,.38-.92,1.35,1.35,0,0,1,1.84,0A1.3,1.3,0,0,1,33,35.3Z"/><path class="cls-2" d="M36,35.8a1.34,1.34,0,0,1-.92-.38,1.3,1.3,0,0,1,0-1.84,1.35,1.35,0,0,1,1.84,0A1.3,1.3,0,0,1,36,35.8Z"/><path class="cls-2" d="M33.75,32a1.34,1.34,0,0,1-.92-.38,1.3,1.3,0,0,1,0-1.84,1.35,1.35,0,0,1,1.84,0A1.3,1.3,0,0,1,33.75,32Z"/><path class="cls-2" d="M33.25,28a1.3,1.3,0,0,1-.92-2.22,1.35,1.35,0,0,1,1.84,0,1.3,1.3,0,0,1,0,1.84A1.3,1.3,0,0,1,33.25,28Z"/><path class="cls-2" d="M37,28.3a1.34,1.34,0,0,1-.92-.38,1.3,1.3,0,0,1,0-1.84,1.35,1.35,0,0,1,1.84,0A1.3,1.3,0,0,1,37,28.3Z"/><path class="cls-2" d="M37.75,32.8a1.34,1.34,0,0,1-.92-.38,1.3,1.3,0,0,1,0-1.84,1.34,1.34,0,0,1,1.84,0,1.3,1.3,0,0,1-.92,2.22Z"/><path class="cls-2" d="M40,36a1.3,1.3,0,0,1-.92-2.22,1.35,1.35,0,0,1,1.84,0A1.3,1.3,0,0,1,40,36Z"/><path class="cls-2" d="M43,38.55a1.3,1.3,0,0,1-.92-2.22,1.35,1.35,0,0,1,1.84,0A1.3,1.3,0,0,1,43,38.55Z"/><path class="cls-2" d="M42.5,42.3a1.3,1.3,0,0,1-.92-2.22,1.34,1.34,0,0,1,1.84,0,1.3,1.3,0,0,1-.92,2.22Z"/><path class="cls-2" d="M41.75,46a1.34,1.34,0,0,1-.92-.38,1.3,1.3,0,0,1,0-1.84,1.34,1.34,0,0,1,1.84,0A1.3,1.3,0,0,1,41.75,46Z"/><path class="cls-2" d="M43.75,49.55a1.34,1.34,0,0,1-.92-.38,1.3,1.3,0,0,1,0-1.84,1.34,1.34,0,0,1,1.84,0,1.3,1.3,0,0,1-.92,2.22Z"/><path class="cls-2" d="M46.75,46.55a1.3,1.3,0,0,1-.92-2.22,1.35,1.35,0,0,1,1.84,0,1.3,1.3,0,0,1-.92,2.22Z"/><path class="cls-2" d="M46.75,51a1.34,1.34,0,0,1-.92-.38,1.3,1.3,0,0,1,0-1.84,1.35,1.35,0,0,1,1.84,0A1.3,1.3,0,0,1,46.75,51Z"/><path class="cls-2" d="M46.5,41.8a1.3,1.3,0,0,1-.92-2.22,1.35,1.35,0,0,1,1.84,0,1.3,1.3,0,0,1-.92,2.22Z"/><path class="cls-2" d="M47.75,38.8a1.34,1.34,0,0,1-.92-.38,1.3,1.3,0,0,1,0-1.84,1.35,1.35,0,0,1,1.84,0,1.3,1.3,0,0,1,0,1.84A1.3,1.3,0,0,1,47.75,38.8Z"/><path class="cls-2" d="M44.5,34.8a1.3,1.3,0,0,1-.92-2.22,1.35,1.35,0,0,1,1.84,0,1.3,1.3,0,0,1-.92,2.22Z"/><path class="cls-2" d="M42.75,32.3a1.34,1.34,0,0,1-.92-.38,1.32,1.32,0,0,1-.38-.92A1.3,1.3,0,1,1,44,31a1.3,1.3,0,0,1-1.3,1.3Z"/><path class="cls-2" d="M40.75,30a1.34,1.34,0,0,1-.92-.38,1.3,1.3,0,0,1,0-1.84,1.34,1.34,0,0,1,1.84,0,1.3,1.3,0,0,1,0,1.84A1.3,1.3,0,0,1,40.75,30Z"/><path class="cls-2" d="M44,28a1.3,1.3,0,0,1-.92-2.22,1.35,1.35,0,0,1,1.84,0A1.3,1.3,0,0,1,44,28Z"/><path class="cls-2" d="M43,24a1.34,1.34,0,0,1-.92-.38,1.3,1.3,0,0,1,0-1.84,1.35,1.35,0,0,1,1.84,0A1.3,1.3,0,0,1,43,24Z"/><path class="cls-2" d="M47.75,26.8a1.34,1.34,0,0,1-.92-.38,1.3,1.3,0,0,1,0-1.84,1.35,1.35,0,0,1,1.84,0,1.3,1.3,0,0,1-.92,2.22Z"/><path class="cls-2" d="M46.5,31a1.34,1.34,0,0,1-.92-.38,1.3,1.3,0,0,1,0-1.84,1.35,1.35,0,0,1,1.84,0A1.3,1.3,0,0,1,46.5,31Z"/><path class="cls-2" d="M48.5,34.3a1.34,1.34,0,0,1-.92-.38,1.3,1.3,0,0,1,0-1.84,1.35,1.35,0,0,1,1.84,0,1.3,1.3,0,0,1-.92,2.22Z"/><path class="cls-2" d="M51.75,36.8a1.3,1.3,0,0,1-1.3-1.3,1.32,1.32,0,0,1,.38-.92,1.35,1.35,0,0,1,1.84,0,1.3,1.3,0,0,1-.92,2.22Z"/><path class="cls-2" d="M51.5,40.8a1.3,1.3,0,0,1-.92-2.22,1.35,1.35,0,0,1,1.84,0,1.3,1.3,0,0,1-.92,2.22Z"/><path class="cls-2" d="M50.5,44.8a1.34,1.34,0,0,1-.92-.38,1.32,1.32,0,0,1-.38-.92,1.3,1.3,0,1,1,2.6,0,1.3,1.3,0,0,1-1.3,1.3Z"/><path class="cls-2" d="M54.25,44a1.3,1.3,0,0,1-.92-2.22,1.35,1.35,0,0,1,1.84,0A1.3,1.3,0,0,1,54.25,44Z"/><path class="cls-2" d="M54,48.55a1.3,1.3,0,0,1-.92-2.22,1.35,1.35,0,0,1,1.84,0A1.3,1.3,0,0,1,54,48.55Z"/><path class="cls-2" d="M56.75,51.55a1.34,1.34,0,0,1-.92-.38,1.3,1.3,0,0,1,0-1.84,1.34,1.34,0,0,1,1.84,0,1.3,1.3,0,0,1,0,1.84A1.3,1.3,0,0,1,56.75,51.55Z"/><path class="cls-2" d="M57.5,46.8a1.34,1.34,0,0,1-.92-.38,1.3,1.3,0,0,1,0-1.84,1.35,1.35,0,0,1,1.84,0,1.3,1.3,0,0,1-.92,2.22Z"/><path class="cls-2" d="M57.5,43a1.3,1.3,0,0,1-.92-2.22,1.35,1.35,0,0,1,1.84,0,1.3,1.3,0,0,1,0,1.84A1.3,1.3,0,0,1,57.5,43Z"/><path class="cls-2" d="M56.5,39a1.34,1.34,0,0,1-.92-.38,1.3,1.3,0,0,1,0-1.84,1.35,1.35,0,0,1,1.84,0A1.3,1.3,0,0,1,56.5,39Z"/><path class="cls-2" d="M27.25,44a1.34,1.34,0,0,1-.92-.38,1.3,1.3,0,0,1,0-1.84,1.34,1.34,0,0,1,1.84,0A1.3,1.3,0,0,1,27.25,44Z"/><path class="cls-2" d="M70.25,33.3a1.3,1.3,0,0,1-.92-2.22,1.34,1.34,0,0,1,1.84,0,1.3,1.3,0,0,1-.92,2.22Z"/><path class="cls-2" d="M71.25,29a1.34,1.34,0,0,1-.92-.38,1.3,1.3,0,0,1,0-1.84,1.35,1.35,0,0,1,1.84,0A1.3,1.3,0,0,1,71.25,29Z"/><path class="cls-2" d="M68,27.3a1.34,1.34,0,0,1-.92-.38A1.32,1.32,0,0,1,66.7,26a1.3,1.3,0,0,1,2.22-.92A1.3,1.3,0,0,1,68,27.3Z"/><path class="cls-2" d="M68.25,36.55a1.3,1.3,0,0,1-.92-2.22,1.35,1.35,0,0,1,1.84,0,1.3,1.3,0,0,1,0,1.84A1.3,1.3,0,0,1,68.25,36.55Z"/><path class="cls-2" d="M68,40.3a1.34,1.34,0,0,1-.92-.38,1.3,1.3,0,0,1,0-1.84,1.34,1.34,0,0,1,1.84,0A1.3,1.3,0,0,1,68,40.3Z"/><path class="cls-2" d="M71.5,39a1.3,1.3,0,0,1-.92-2.22,1.35,1.35,0,0,1,1.84,0A1.3,1.3,0,0,1,71.5,39Z"/><path class="cls-2" d="M70.75,43a1.34,1.34,0,0,1-.92-.38,1.32,1.32,0,0,1-.38-.92,1.34,1.34,0,0,1,.38-.92,1.35,1.35,0,0,1,1.84,0A1.3,1.3,0,0,1,70.75,43Z"/><path class="cls-2" d="M70,50.55a1.34,1.34,0,0,1-.92-.38,1.3,1.3,0,0,1,0-1.84,1.34,1.34,0,0,1,1.84,0A1.3,1.3,0,0,1,70,50.55Z"/><path class="cls-2" d="M69,47a1.34,1.34,0,0,1-.92-.38,1.3,1.3,0,0,1,0-1.84,1.35,1.35,0,0,1,1.84,0A1.3,1.3,0,0,1,69,47Z"/><path class="cls-2" d="M66.5,31a1.3,1.3,0,0,1-.92-2.22,1.35,1.35,0,0,1,1.84,0A1.3,1.3,0,0,1,66.5,31Z"/><path class="cls-2" d="M63,31.3a1.34,1.34,0,0,1-.92-.38,1.3,1.3,0,0,1,0-1.84,1.35,1.35,0,0,1,1.84,0,1.3,1.3,0,0,1,0,1.84A1.3,1.3,0,0,1,63,31.3Z"/><path class="cls-2" d="M64,26.55a1.34,1.34,0,0,1-.92-.38,1.3,1.3,0,0,1,0-1.84,1.35,1.35,0,0,1,1.84,0A1.3,1.3,0,0,1,64,26.55Z"/><path class="cls-2" d="M60.5,28a1.34,1.34,0,0,1-.92-.38,1.3,1.3,0,0,1,0-1.84,1.35,1.35,0,0,1,1.84,0,1.3,1.3,0,0,1,0,1.84A1.3,1.3,0,0,1,60.5,28Z"/><path class="cls-2" d="M56.75,27a1.34,1.34,0,0,1-.92-.38,1.3,1.3,0,0,1,0-1.84,1.35,1.35,0,0,1,1.84,0,1.32,1.32,0,0,1,.38.92,1.3,1.3,0,0,1-.38.92A1.32,1.32,0,0,1,56.75,27Z"/><path class="cls-2" d="M53.25,28.8a1.34,1.34,0,0,1-.92-.38,1.3,1.3,0,0,1,0-1.84,1.34,1.34,0,0,1,1.84,0,1.3,1.3,0,0,1,0,1.84A1.3,1.3,0,0,1,53.25,28.8Z"/><path class="cls-2" d="M50.25,29.8a1.34,1.34,0,0,1-.92-.38,1.3,1.3,0,0,1,0-1.84,1.35,1.35,0,0,1,1.84,0,1.3,1.3,0,0,1-.92,2.22Z"/><path class="cls-2" d="M52.5,33.55a1.34,1.34,0,0,1-.92-.38,1.3,1.3,0,0,1,0-1.84,1.35,1.35,0,0,1,1.84,0,1.3,1.3,0,0,1-.92,2.22Z"/><path class="cls-2" d="M56.75,31a1.34,1.34,0,0,1-.92-.38,1.3,1.3,0,0,1,0-1.84,1.35,1.35,0,0,1,1.84,0,1.32,1.32,0,0,1,.38.92,1.3,1.3,0,0,1-.38.92A1.32,1.32,0,0,1,56.75,31Z"/><path class="cls-2" d="M59.75,34a1.3,1.3,0,0,1-1.3-1.3,1.34,1.34,0,0,1,.38-.92,1.35,1.35,0,0,1,1.84,0A1.3,1.3,0,0,1,59.75,34Z"/><path class="cls-2" d="M56,35.55a1.3,1.3,0,0,1-.92-2.22,1.34,1.34,0,0,1,1.84,0,1.3,1.3,0,0,1,0,1.84A1.3,1.3,0,0,1,56,35.55Z"/><path class="cls-2" d="M60,38.3a1.34,1.34,0,0,1-.92-.38,1.3,1.3,0,0,1,0-1.84,1.35,1.35,0,0,1,1.84,0A1.3,1.3,0,0,1,60,38.3Z"/><path class="cls-2" d="M64.5,34.8a1.31,1.31,0,0,1-1.3-1.3,1.32,1.32,0,0,1,.38-.92,1.34,1.34,0,0,1,1.84,0,1.3,1.3,0,0,1-.92,2.22Z"/><path class="cls-2" d="M64.25,38a1.34,1.34,0,0,1-.92-.38,1.3,1.3,0,0,1,0-1.84,1.35,1.35,0,0,1,1.84,0A1.3,1.3,0,0,1,64.25,38Z"/><path class="cls-2" d="M61.5,42.3a1.34,1.34,0,0,1-.92-.38,1.3,1.3,0,0,1,0-1.84,1.35,1.35,0,0,1,1.84,0,1.3,1.3,0,0,1,0,1.84A1.3,1.3,0,0,1,61.5,42.3Z"/><path class="cls-2" d="M62.75,46.3a1.34,1.34,0,0,1-.92-.38,1.3,1.3,0,0,1,0-1.84,1.35,1.35,0,0,1,1.84,0,1.3,1.3,0,0,1,0,1.84A1.3,1.3,0,0,1,62.75,46.3Z"/><path class="cls-2" d="M57.5,46.8a1.34,1.34,0,0,1-.92-.38,1.3,1.3,0,0,1,0-1.84,1.35,1.35,0,0,1,1.84,0,1.3,1.3,0,0,1-.92,2.22Z"/><path class="cls-2" d="M60.25,49a1.32,1.32,0,0,1-.92-.38,1.34,1.34,0,0,1-.38-.92,1.32,1.32,0,0,1,.38-.92,1.35,1.35,0,0,1,1.84,0,1.32,1.32,0,0,1,.38.92,1.28,1.28,0,0,1-.38.92A1.32,1.32,0,0,1,60.25,49Z"/><path class="cls-2" d="M65.75,49.3a1.34,1.34,0,0,1-.92-.38,1.3,1.3,0,0,1,0-1.84,1.34,1.34,0,0,1,1.84,0,1.3,1.3,0,0,1,0,1.84A1.3,1.3,0,0,1,65.75,49.3Z"/><path class="cls-2" d="M65.5,43.55a1.34,1.34,0,0,1-.92-.38,1.3,1.3,0,0,1,0-1.84,1.35,1.35,0,0,1,1.84,0,1.3,1.3,0,0,1-.92,2.22Z"/><path class="cls-2" d="M50,49a1.34,1.34,0,0,1-.92-.38,1.32,1.32,0,0,1-.38-.92,1.34,1.34,0,0,1,.38-.92,1.35,1.35,0,0,1,1.84,0,1.3,1.3,0,0,1,0,1.84A1.32,1.32,0,0,1,50,49Z"/><path class="cls-2" d="M61.75,52.8a1.34,1.34,0,0,1-.92-.38,1.32,1.32,0,0,1-.38-.92,1.34,1.34,0,0,1,.38-.92,1.35,1.35,0,0,1,1.84,0,1.3,1.3,0,0,1-.92,2.22Z"/><path class="cls-2" d="M6.75,58.8a1.34,1.34,0,0,1-.92-.38,1.3,1.3,0,0,1,0-1.84,1.35,1.35,0,0,1,1.84,0A1.34,1.34,0,0,1,8,57.5a1.3,1.3,0,0,1-1.3,1.3Z"/><path class="cls-2" d="M7.75,54.3a1.34,1.34,0,0,1-.92-.38,1.3,1.3,0,0,1,0-1.84,1.35,1.35,0,0,1,1.84,0,1.3,1.3,0,0,1-.92,2.22Z"/><path class="cls-2" d="M11,53a1.34,1.34,0,0,1-.92-.38,1.3,1.3,0,0,1,0-1.84,1.35,1.35,0,0,1,1.84,0A1.3,1.3,0,0,1,11,53Z"/><path class="cls-2" d="M10,57a1.34,1.34,0,0,1-.92-.38,1.3,1.3,0,0,1,0-1.84,1.35,1.35,0,0,1,1.84,0A1.3,1.3,0,0,1,10,57Z"/><path class="cls-2" d="M13.5,59a1.34,1.34,0,0,1-.92-.38,1.3,1.3,0,0,1,0-1.84,1.35,1.35,0,0,1,1.84,0A1.3,1.3,0,0,1,13.5,59Z"/><path class="cls-2" d="M13.5,63a1.34,1.34,0,0,1-.92-.38,1.3,1.3,0,0,1,0-1.84,1.35,1.35,0,0,1,1.84,0A1.3,1.3,0,0,1,13.5,63Z"/><path class="cls-2" d="M9.5,61.3a1.34,1.34,0,0,1-.92-.38,1.3,1.3,0,0,1,0-1.84,1.35,1.35,0,0,1,1.84,0,1.3,1.3,0,0,1,0,1.84A1.32,1.32,0,0,1,9.5,61.3Z"/><path class="cls-2" d="M17,60a1.3,1.3,0,0,1-.92-2.22,1.35,1.35,0,0,1,1.84,0,1.3,1.3,0,0,1,0,1.84A1.3,1.3,0,0,1,17,60Z"/><path class="cls-2" d="M17.25,63a1.3,1.3,0,0,1-1.3-1.3,1.34,1.34,0,0,1,.38-.92,1.35,1.35,0,0,1,1.84,0,1.34,1.34,0,0,1,.38.92,1.32,1.32,0,0,1-.38.92A1.3,1.3,0,0,1,17.25,63Z"/><path class="cls-2" d="M19,56.8a1.34,1.34,0,0,1-.92-.38,1.3,1.3,0,0,1,0-1.84,1.34,1.34,0,0,1,1.84,0A1.3,1.3,0,0,1,19,56.8Z"/><path class="cls-2" d="M22,54.55a1.34,1.34,0,0,1-.92-.38,1.3,1.3,0,0,1,0-1.84,1.35,1.35,0,0,1,1.84,0A1.3,1.3,0,0,1,22,54.55Z"/><path class="cls-2" d="M19,56.8a1.34,1.34,0,0,1-.92-.38,1.3,1.3,0,0,1,0-1.84,1.34,1.34,0,0,1,1.84,0A1.3,1.3,0,0,1,19,56.8Z"/><path class="cls-2" d="M22.25,58.3a1.34,1.34,0,0,1-.92-.38,1.3,1.3,0,0,1,0-1.84,1.35,1.35,0,0,1,1.84,0,1.3,1.3,0,0,1-.92,2.22Z"/><path class="cls-2" d="M25.25,62.55a1.34,1.34,0,0,1-.92-.38,1.3,1.3,0,0,1,0-1.84,1.35,1.35,0,0,1,1.84,0,1.29,1.29,0,0,1,.38.92,1.3,1.3,0,0,1-1.3,1.3Z"/><path class="cls-2" d="M20.25,61.55a1.34,1.34,0,0,1-.92-.38,1.3,1.3,0,0,1,0-1.84,1.35,1.35,0,0,1,1.84,0,1.3,1.3,0,0,1,0,1.84A1.3,1.3,0,0,1,20.25,61.55Z"/><path class="cls-2" d="M26,59.55a1.3,1.3,0,0,1-.92-2.22,1.35,1.35,0,0,1,1.84,0,1.3,1.3,0,0,1,0,1.84A1.3,1.3,0,0,1,26,59.55Z"/><path class="cls-2" d="M25.75,55a1.34,1.34,0,0,1-.92-.38,1.3,1.3,0,0,1,0-1.84,1.35,1.35,0,0,1,1.84,0A1.3,1.3,0,0,1,25.75,55Z"/><path class="cls-2" d="M30,53.3a1.34,1.34,0,0,1-.92-.38,1.3,1.3,0,0,1,0-1.84,1.35,1.35,0,0,1,1.84,0,1.3,1.3,0,0,1,0,1.84A1.3,1.3,0,0,1,30,53.3Z"/><path class="cls-2" d="M29.25,56.3a1.3,1.3,0,0,1-.92-2.22,1.35,1.35,0,0,1,1.84,0,1.3,1.3,0,0,1,0,1.84A1.3,1.3,0,0,1,29.25,56.3Z"/><path class="cls-2" d="M30.5,60a1.3,1.3,0,0,1-1.3-1.3,1.3,1.3,0,1,1,2.6,0A1.3,1.3,0,0,1,30.5,60Z"/><path class="cls-2" d="M34.25,57.55a1.34,1.34,0,0,1-.92-.38,1.3,1.3,0,0,1,0-1.84,1.34,1.34,0,0,1,1.84,0,1.3,1.3,0,0,1-.92,2.22Z"/><path class="cls-2" d="M34,63a1.3,1.3,0,0,1-.92-2.22,1.35,1.35,0,0,1,1.84,0A1.3,1.3,0,0,1,34,63Z"/><path class="cls-2" d="M34.5,54a1.34,1.34,0,0,1-.92-.38,1.3,1.3,0,0,1,0-1.84,1.35,1.35,0,0,1,1.84,0A1.3,1.3,0,0,1,34.5,54Z"/><path class="cls-2" d="M38,55.8a1.34,1.34,0,0,1-.92-.38,1.3,1.3,0,0,1,0-1.84,1.34,1.34,0,0,1,1.84,0A1.3,1.3,0,0,1,38,55.8Z"/><path class="cls-2" d="M14.75,55a1.3,1.3,0,0,1-1.3-1.3,1.34,1.34,0,0,1,.38-.92,1.35,1.35,0,0,1,1.84,0,1.34,1.34,0,0,1,.38.92,1.3,1.3,0,0,1-1.3,1.3Z"/><path class="cls-2" d="M37,59.8a1.34,1.34,0,0,1-.92-.38,1.3,1.3,0,0,1,0-1.84,1.34,1.34,0,0,1,1.84,0,1.28,1.28,0,0,1,.38.92A1.3,1.3,0,0,1,37,59.8Z"/><path class="cls-2" d="M3.5,65.3a1.3,1.3,0,0,1-.92-2.22,1.35,1.35,0,0,1,1.84,0A1.3,1.3,0,0,1,3.5,65.3Z"/><path class="cls-2" d="M2.5,69.3a1.3,1.3,0,0,1-.92-2.22,1.35,1.35,0,0,1,1.84,0A1.32,1.32,0,0,1,3.8,68a1.28,1.28,0,0,1-.38.92A1.32,1.32,0,0,1,2.5,69.3Z"/><path class="cls-2" d="M11.5,69a1.34,1.34,0,0,1-.92-.38,1.32,1.32,0,0,1-.38-.92,1.34,1.34,0,0,1,.38-.92,1.35,1.35,0,0,1,1.84,0,1.34,1.34,0,0,1,.38.92A1.3,1.3,0,0,1,11.5,69Z"/><path class="cls-2" d="M10.25,65a1.34,1.34,0,0,1-.92-.38,1.3,1.3,0,0,1,0-1.84,1.35,1.35,0,0,1,1.84,0A1.3,1.3,0,0,1,10.25,65Z"/><path class="cls-2" d="M14.5,66.8a1.3,1.3,0,0,1-.92-2.22,1.35,1.35,0,0,1,1.84,0,1.34,1.34,0,0,1,.38.92,1.32,1.32,0,0,1-.38.92A1.3,1.3,0,0,1,14.5,66.8Z"/><path class="cls-2" d="M11.5,69a1.34,1.34,0,0,1-.92-.38,1.32,1.32,0,0,1-.38-.92,1.34,1.34,0,0,1,.38-.92,1.35,1.35,0,0,1,1.84,0,1.34,1.34,0,0,1,.38.92A1.3,1.3,0,0,1,11.5,69Z"/><path class="cls-2" d="M18.25,66.3a1.34,1.34,0,0,1-.92-.38,1.32,1.32,0,0,1-.38-.92,1.3,1.3,0,0,1,2.22-.92,1.3,1.3,0,0,1-.92,2.22Z"/><path class="cls-2" d="M22.5,65.55a1.34,1.34,0,0,1-.92-.38,1.32,1.32,0,0,1-.38-.92,1.3,1.3,0,1,1,2.6,0,1.3,1.3,0,0,1-1.3,1.3Z"/><path class="cls-2" d="M21.75,68.55a1.34,1.34,0,0,1-.92-.38,1.3,1.3,0,0,1,0-1.84,1.3,1.3,0,0,1,2.22.92,1.32,1.32,0,0,1-.38.92A1.3,1.3,0,0,1,21.75,68.55Z"/><path class="cls-2" d="M26.75,69.8a1.34,1.34,0,0,1-.92-.38,1.3,1.3,0,0,1,0-1.84,1.35,1.35,0,0,1,1.84,0,1.3,1.3,0,0,1-.92,2.22Z"/><path class="cls-2" d="M27,66.3a1.34,1.34,0,0,1-.92-.38,1.3,1.3,0,0,1,0-1.84,1.34,1.34,0,0,1,1.84,0A1.3,1.3,0,0,1,27,66.3Z"/><path class="cls-2" d="M31,68.8a1.34,1.34,0,0,1-.92-.38,1.3,1.3,0,0,1,0-1.84,1.34,1.34,0,0,1,1.84,0A1.3,1.3,0,0,1,31,68.8Z"/><path class="cls-2" d="M34.25,67.3a1.34,1.34,0,0,1-.92-.38,1.3,1.3,0,0,1,0-1.84,1.34,1.34,0,0,1,1.84,0,1.3,1.3,0,0,1-.92,2.22Z"/><path class="cls-2" d="M7.25,67.3a1.34,1.34,0,0,1-.92-.38,1.3,1.3,0,0,1,0-1.84,1.34,1.34,0,0,1,1.84,0,1.3,1.3,0,0,1-.92,2.22Z"/><path class="cls-2" d="M41.5,52.3a1.34,1.34,0,0,1-.92-.38,1.3,1.3,0,0,1,0-1.84,1.35,1.35,0,0,1,1.84,0,1.3,1.3,0,0,1-.92,2.22Z"/><path class="cls-2" d="M44,58.55a1.34,1.34,0,0,1-.92-.38,1.3,1.3,0,0,1,0-1.84,1.35,1.35,0,0,1,1.84,0A1.3,1.3,0,0,1,44,58.55Z"/><path class="cls-2" d="M44.5,54.55a1.3,1.3,0,0,1-.92-2.22,1.35,1.35,0,0,1,1.84,0,1.3,1.3,0,0,1-.92,2.22Z"/><path class="cls-2" d="M49.25,53.55a1.3,1.3,0,0,1-1.3-1.3,1.34,1.34,0,0,1,.38-.92,1.35,1.35,0,0,1,1.84,0,1.3,1.3,0,0,1,0,1.84A1.3,1.3,0,0,1,49.25,53.55Z"/><path class="cls-2" d="M50,58.3a1.3,1.3,0,0,1-.92-2.22,1.35,1.35,0,0,1,1.84,0A1.3,1.3,0,0,1,50,58.3Z"/><path class="cls-2" d="M47,61a1.34,1.34,0,0,1-.92-.38,1.3,1.3,0,0,1,0-1.84,1.35,1.35,0,0,1,1.84,0A1.3,1.3,0,0,1,47,61Z"/><path class="cls-2" d="M43.75,62.8a1.34,1.34,0,0,1-.92-.38,1.3,1.3,0,0,1,0-1.84,1.34,1.34,0,0,1,1.84,0,1.3,1.3,0,0,1-.92,2.22Z"/><path class="cls-2" d="M44,58.55a1.34,1.34,0,0,1-.92-.38,1.3,1.3,0,0,1,0-1.84,1.35,1.35,0,0,1,1.84,0A1.3,1.3,0,0,1,44,58.55Z"/><path class="cls-2" d="M41.75,66a1.34,1.34,0,0,1-.92-.38,1.3,1.3,0,0,1,0-1.84,1.35,1.35,0,0,1,1.84,0A1.3,1.3,0,0,1,41.75,66Z"/><path class="cls-2" d="M46.5,65.8a1.34,1.34,0,0,1-.92-.38,1.3,1.3,0,0,1,0-1.84,1.35,1.35,0,0,1,1.84,0,1.3,1.3,0,0,1-.92,2.22Z"/><path class="cls-2" d="M50,67a1.34,1.34,0,0,1-.92-.38,1.3,1.3,0,0,1,0-1.84,1.3,1.3,0,0,1,1.84,1.84A1.32,1.32,0,0,1,50,67Z"/><path class="cls-2" d="M50.25,62.55a1.34,1.34,0,0,1-.92-.38,1.3,1.3,0,0,1,0-1.84,1.35,1.35,0,0,1,1.84,0,1.3,1.3,0,0,1-.92,2.22Z"/><path class="cls-2" d="M3.25,61a1.3,1.3,0,0,1-.92-2.22,1.34,1.34,0,0,1,1.84,0,1.34,1.34,0,0,1,.38.92A1.3,1.3,0,0,1,3.25,61Z"/><path class="cls-2" d="M3.75,56.3a1.3,1.3,0,0,1-.92-2.22,1.35,1.35,0,0,1,1.84,0,1.3,1.3,0,0,1-.92,2.22Z"/><path class="cls-2" d="M70,69a1.34,1.34,0,0,1-.92-.38,1.3,1.3,0,0,1,0-1.84,1.35,1.35,0,0,1,1.84,0A1.3,1.3,0,0,1,70,69Z"/><path class="cls-2" d="M66.75,67.55a1.3,1.3,0,0,1-.92-2.22,1.34,1.34,0,0,1,1.84,0,1.3,1.3,0,0,1,0,1.84A1.3,1.3,0,0,1,66.75,67.55Z"/><path class="cls-2" d="M72.75,66.55a1.34,1.34,0,0,1-.92-.38,1.3,1.3,0,0,1,0-1.84,1.35,1.35,0,0,1,1.84,0,1.3,1.3,0,0,1-.92,2.22Z"/><path class="cls-2" d="M69.5,53.8a1.34,1.34,0,0,1-.92-.38,1.3,1.3,0,0,1,0-1.84,1.35,1.35,0,0,1,1.84,0,1.3,1.3,0,0,1-.92,2.22Z"/><path class="cls-2" d="M69.25,59a1.3,1.3,0,0,1-.92-2.22,1.35,1.35,0,0,1,1.84,0A1.3,1.3,0,0,1,69.25,59Z"/><path class="cls-2" d="M69.5,53.8a1.34,1.34,0,0,1-.92-.38,1.3,1.3,0,0,1,0-1.84,1.35,1.35,0,0,1,1.84,0,1.3,1.3,0,0,1-.92,2.22Z"/><path class="cls-2" d="M71,62.8a1.3,1.3,0,0,1-.92-2.22,1.35,1.35,0,0,1,1.84,0A1.3,1.3,0,0,1,71,62.8Z"/><path class="cls-2" d="M39.25,63.3a1.3,1.3,0,0,1-.92-2.22,1.34,1.34,0,0,1,1.84,0,1.3,1.3,0,0,1,0,1.84A1.3,1.3,0,0,1,39.25,63.3Z"/><path class="cls-2" d="M37.75,66.3a1.3,1.3,0,0,1-.92-2.22,1.34,1.34,0,0,1,1.84,0,1.3,1.3,0,0,1,0,1.84A1.3,1.3,0,0,1,37.75,66.3Z"/><path class="cls-2" d="M53,60.55a1.34,1.34,0,0,1-.92-.38,1.32,1.32,0,0,1-.38-.92,1.34,1.34,0,0,1,.38-.92,1.35,1.35,0,0,1,1.84,0,1.34,1.34,0,0,1,.38.92,1.32,1.32,0,0,1-.38.92A1.3,1.3,0,0,1,53,60.55Z"/><path class="cls-2" d="M56,61a1.3,1.3,0,0,1-.92-2.22,1.35,1.35,0,0,1,1.84,0A1.3,1.3,0,0,1,56,61Z"/><path class="cls-2" d="M53.5,65a1.34,1.34,0,0,1-.92-.38,1.3,1.3,0,0,1,0-1.84,1.35,1.35,0,0,1,1.84,0A1.3,1.3,0,0,1,53.5,65Z"/><path class="cls-2" d="M57.5,64.8a1.34,1.34,0,0,1-.92-.38,1.3,1.3,0,0,1,0-1.84,1.35,1.35,0,0,1,1.84,0,1.3,1.3,0,0,1-.92,2.22Z"/><path class="cls-2" d="M53,60.55a1.34,1.34,0,0,1-.92-.38,1.32,1.32,0,0,1-.38-.92,1.34,1.34,0,0,1,.38-.92,1.35,1.35,0,0,1,1.84,0,1.34,1.34,0,0,1,.38.92,1.32,1.32,0,0,1-.38.92A1.3,1.3,0,0,1,53,60.55Z"/><path class="cls-2" d="M56,61a1.3,1.3,0,0,1-.92-2.22,1.35,1.35,0,0,1,1.84,0A1.3,1.3,0,0,1,56,61Z"/><path class="cls-2" d="M53.75,56.55a1.3,1.3,0,0,1-.92-2.22,1.35,1.35,0,0,1,1.84,0,1.3,1.3,0,0,1,0,1.84A1.3,1.3,0,0,1,53.75,56.55Z"/><path class="cls-2" d="M57.75,58a1.34,1.34,0,0,1-.92-.38,1.3,1.3,0,0,1,0-1.84,1.35,1.35,0,0,1,1.84,0A1.3,1.3,0,0,1,57.75,58Z"/><path class="cls-2" d="M60,61.3a1.34,1.34,0,0,1-.92-.38,1.3,1.3,0,0,1,0-1.84,1.35,1.35,0,0,1,1.84,0A1.3,1.3,0,0,1,60,61.3Z"/><path class="cls-2" d="M62,63.55a1.3,1.3,0,0,1-1.3-1.3,1.34,1.34,0,0,1,.38-.92,1.35,1.35,0,0,1,1.84,0,1.3,1.3,0,0,1,0,1.84A1.3,1.3,0,0,1,62,63.55Z"/><path class="cls-2" d="M62.5,67.55a1.34,1.34,0,0,1-.92-.38,1.3,1.3,0,0,1,0-1.84,1.35,1.35,0,0,1,1.84,0,1.3,1.3,0,0,1-.92,2.22Z"/><path class="cls-2" d="M64.5,60a1.3,1.3,0,0,1-.92-2.22,1.34,1.34,0,0,1,1.84,0,1.3,1.3,0,0,1,0,1.84A1.3,1.3,0,0,1,64.5,60Z"/><path class="cls-2" d="M62.75,57.55a1.3,1.3,0,0,1-1.3-1.3,1.32,1.32,0,0,1,.38-.92,1.35,1.35,0,0,1,1.84,0,1.3,1.3,0,0,1-.92,2.22Z"/><path class="cls-2" d="M58.5,54.55a1.34,1.34,0,0,1-.92-.38,1.3,1.3,0,0,1,0-1.84,1.35,1.35,0,0,1,1.84,0,1.3,1.3,0,0,1-.92,2.22Z"/><path class="cls-2" d="M66.5,56.3a1.34,1.34,0,0,1-.92-.38,1.3,1.3,0,0,1,0-1.84,1.35,1.35,0,0,1,1.84,0,1.3,1.3,0,0,1-.92,2.22Z"/><path class="cls-2" d="M66.75,63.55a1.3,1.3,0,0,1-.92-2.22,1.34,1.34,0,0,1,1.84,0,1.3,1.3,0,0,1,0,1.84A1.3,1.3,0,0,1,66.75,63.55Z"/><path class="cls-2" d="M53.5,53a1.34,1.34,0,0,1-.92-.38,1.3,1.3,0,0,1,0-1.84,1.35,1.35,0,0,1,1.84,0A1.3,1.3,0,0,1,53.5,53Z"/><path class="cls-2" d="M58.25,68.3a1.3,1.3,0,0,1-.92-2.22,1.35,1.35,0,0,1,1.84,0,1.3,1.3,0,0,1,0,1.84A1.3,1.3,0,0,1,58.25,68.3Z"/><path class="cls-2" d="M64.25,70.3a1.34,1.34,0,0,1-.92-.38,1.3,1.3,0,0,1,0-1.84,1.35,1.35,0,0,1,1.84,0,1.3,1.3,0,0,1-.92,2.22Z"/><path class="cls-2" d="M65.25,52.8a1.3,1.3,0,0,1-.92-2.22,1.35,1.35,0,0,1,1.84,0,1.3,1.3,0,0,1-.92,2.22Z"/><path class="cls-2" d="M9.5,26.3a1.34,1.34,0,0,1-.92-.38,1.3,1.3,0,0,1,0-1.84,1.35,1.35,0,0,1,1.84,0,1.28,1.28,0,0,1,.38.92,1.29,1.29,0,0,1-.38.92A1.32,1.32,0,0,1,9.5,26.3Z"/><path class="cls-2" d="M5.75,62.8a1.34,1.34,0,0,1-.92-.38,1.3,1.3,0,0,1,0-1.84,1.35,1.35,0,0,1,1.84,0,1.3,1.3,0,0,1,0,1.84A1.32,1.32,0,0,1,5.75,62.8Z"/><path class="cls-2" d="M30.25,63.8a1.34,1.34,0,0,1-.92-.38,1.3,1.3,0,0,1,0-1.84,1.35,1.35,0,0,1,1.84,0,1.3,1.3,0,0,1-.92,2.22Z"/><path class="cls-2" d="M40.5,58.3a1.34,1.34,0,0,1-.92-.38,1.3,1.3,0,0,1,0-1.84,1.35,1.35,0,0,1,1.84,0,1.3,1.3,0,0,1-.92,2.22Z"/><path class="cls-2" d="M47.25,56.8a1.3,1.3,0,0,1-.92-2.22,1.34,1.34,0,0,1,1.84,0,1.3,1.3,0,0,1-.92,2.22Z"/><path class="cls-2" d="M41,72.8a1.34,1.34,0,0,1-.92-.38,1.3,1.3,0,0,1,0-1.84,1.35,1.35,0,0,1,1.84,0A1.3,1.3,0,0,1,41,72.8Z"/><path class="cls-2" d="M11.5,74a1.34,1.34,0,0,1-.92-.38,1.3,1.3,0,0,1,0-1.84,1.35,1.35,0,0,1,1.84,0A1.3,1.3,0,0,1,11.5,74Z"/><path class="cls-2" d="M21.25,73.8a1.34,1.34,0,0,1-.92-.38,1.32,1.32,0,0,1-.38-.92,1.34,1.34,0,0,1,.38-.92,1.35,1.35,0,0,1,1.84,0,1.3,1.3,0,0,1-.92,2.22Z"/><path class="cls-2" d="M17,74.55a1.3,1.3,0,0,1-.92-2.22,1.35,1.35,0,0,1,1.84,0,1.3,1.3,0,0,1,0,1.84A1.3,1.3,0,0,1,17,74.55Z"/><path class="cls-2" d="M27.75,74.55a1.3,1.3,0,0,1-.92-2.22,1.35,1.35,0,0,1,1.84,0,1.3,1.3,0,0,1,0,1.84A1.3,1.3,0,0,1,27.75,74.55Z"/><path class="cls-2" d="M55,73.55a1.3,1.3,0,0,1-.92-2.22,1.35,1.35,0,0,1,1.84,0A1.3,1.3,0,0,1,55,73.55Z"/><path class="cls-2" d="M7.75,74a1.34,1.34,0,0,1-.92-.38,1.3,1.3,0,0,1,0-1.84,1.35,1.35,0,0,1,1.84,0,1.32,1.32,0,0,1,.38.92,1.34,1.34,0,0,1-.38.92A1.32,1.32,0,0,1,7.75,74Z"/><path class="cls-2" d="M55,73.55a1.3,1.3,0,0,1-.92-2.22,1.35,1.35,0,0,1,1.84,0A1.3,1.3,0,0,1,55,73.55Z"/><path class="cls-2" d="M72.5,10.3A1.3,1.3,0,0,1,71.2,9a1.3,1.3,0,0,1,2.22-.92A1.32,1.32,0,0,1,73.8,9a1.3,1.3,0,0,1-.38.92A1.32,1.32,0,0,1,72.5,10.3Z"/><path class="cls-2" d="M72.75,13.55a1.34,1.34,0,0,1-.92-.38,1.3,1.3,0,0,1,0-1.84,1.34,1.34,0,0,1,1.84,0,1.3,1.3,0,0,1-.92,2.22Z"/><path class="cls-2" d="M73,20.8a1.3,1.3,0,0,1-.92-2.22,1.35,1.35,0,0,1,1.84,0A1.3,1.3,0,0,1,73,20.8Z"/><path class="cls-2" d="M72.25,24a1.3,1.3,0,0,1-.92-2.22,1.35,1.35,0,0,1,1.84,0A1.3,1.3,0,0,1,72.25,24Z"/><path class="cls-2" d="M72.75,72a1.34,1.34,0,0,1-.92-.38,1.3,1.3,0,0,1,0-1.84,1.34,1.34,0,0,1,1.84,0A1.3,1.3,0,0,1,72.75,72Z"/><path class="cls-2" d="M73.25,46.55a1.34,1.34,0,0,1-.92-.38,1.3,1.3,0,0,1,0-1.84,1.34,1.34,0,0,1,1.84,0,1.3,1.3,0,0,1-.92,2.22Z"/><path class="cls-2" d="M72.25,57.3a1.3,1.3,0,0,1-.92-2.22,1.35,1.35,0,0,1,1.84,0,1.3,1.3,0,0,1-.92,2.22Z"/><path class="cls-2" d="M73.25,53.3a1.3,1.3,0,0,1-.92-2.22,1.35,1.35,0,0,1,1.84,0,1.3,1.3,0,0,1-.92,2.22Z"/><path class="cls-2" d="M46.25,71.8a1.34,1.34,0,0,1-.92-.38,1.32,1.32,0,0,1-.38-.92,1.34,1.34,0,0,1,.38-.92,1.35,1.35,0,0,1,1.84,0,1.34,1.34,0,0,1,.38.92,1.3,1.3,0,0,1-1.3,1.3Z"/><path class="cls-2" d="M40.5,69.3a1.34,1.34,0,0,1-.92-.38,1.3,1.3,0,0,1,0-1.84,1.35,1.35,0,0,1,1.84,0,1.3,1.3,0,0,1-.92,2.22Z"/><path class="cls-2" d="M-1.25,3.3a1.34,1.34,0,0,1-.92-.38A1.34,1.34,0,0,1-2.55,2a1.32,1.32,0,0,1,.38-.92,1.35,1.35,0,0,1,1.84,0A1.32,1.32,0,0,1,0,2a1.32,1.32,0,0,1-.38.92A1.32,1.32,0,0,1-1.25,3.3Z"/><path class="cls-2" d="M-.5,18a1.34,1.34,0,0,1-.92-.38,1.32,1.32,0,0,1-.38-.92,1.32,1.32,0,0,1,.38-.92,1.35,1.35,0,0,1,1.84,0,1.32,1.32,0,0,1,.38.92,1.32,1.32,0,0,1-.38.92A1.32,1.32,0,0,1-.5,18Z"/><path class="cls-2" d="M-.75,29a1.34,1.34,0,0,1-.92-.38,1.32,1.32,0,0,1-.38-.92,1.32,1.32,0,0,1,.38-.92,1.35,1.35,0,0,1,1.84,0,1.32,1.32,0,0,1,.38.92,1.32,1.32,0,0,1-.38.92A1.32,1.32,0,0,1-.75,29Z"/><path class="cls-2" d="M-.5,39a1.32,1.32,0,0,1-.92-.38,1.32,1.32,0,0,1-.38-.92,1.32,1.32,0,0,1,.38-.92,1.35,1.35,0,0,1,1.84,0,1.32,1.32,0,0,1,.38.92,1.32,1.32,0,0,1-.38.92A1.32,1.32,0,0,1-.5,39Z"/><path class="cls-2" d="M-1.25,43a1.34,1.34,0,0,1-.92-.38,1.32,1.32,0,0,1-.38-.92,1.34,1.34,0,0,1,.38-.92,1.35,1.35,0,0,1,1.84,0,1.32,1.32,0,0,1,.38.92,1.32,1.32,0,0,1-.38.92A1.32,1.32,0,0,1-1.25,43Z"/><path class="cls-2" d="M.75,66.55a1.34,1.34,0,0,1-.92-.38,1.3,1.3,0,0,1,0-1.84,1.35,1.35,0,0,1,1.84,0,1.3,1.3,0,0,1,0,1.84A1.32,1.32,0,0,1,.75,66.55Z"/><path class="cls-2" d="M-1,62.8a1.32,1.32,0,0,1-.92-.38,1.32,1.32,0,0,1-.38-.92,1.32,1.32,0,0,1,.38-.92,1.35,1.35,0,0,1,1.84,0,1.32,1.32,0,0,1,.38.92,1.32,1.32,0,0,1-.38.92A1.32,1.32,0,0,1-1,62.8Z"/><path class="cls-2" d="M.5,10.3a1.32,1.32,0,0,1-.92-.38A1.32,1.32,0,0,1-.8,9a1.34,1.34,0,0,1,.38-.92,1.33,1.33,0,0,1,1.84,0A1.32,1.32,0,0,1,1.8,9a1.3,1.3,0,0,1-.38.92A1.32,1.32,0,0,1,.5,10.3Z"/><path class="cls-2" d="M.75,13.55a1.34,1.34,0,0,1-.92-.38,1.3,1.3,0,0,1,0-1.84,1.34,1.34,0,0,1,1.84,0,1.3,1.3,0,0,1,0,1.84A1.32,1.32,0,0,1,.75,13.55Z"/><path class="cls-2" d="M1,20.8a1.32,1.32,0,0,1-.92-.38,1.3,1.3,0,0,1,0-1.84,1.35,1.35,0,0,1,1.84,0,1.3,1.3,0,0,1,0,1.84A1.32,1.32,0,0,1,1,20.8Z"/><path class="cls-2" d="M.25,24a1.32,1.32,0,0,1-.92-.38,1.3,1.3,0,0,1,0-1.84,1.35,1.35,0,0,1,1.84,0,1.3,1.3,0,0,1,0,1.84A1.32,1.32,0,0,1,.25,24Z"/><path class="cls-2" d="M.75,72a1.34,1.34,0,0,1-.92-.38,1.3,1.3,0,0,1,0-1.84,1.34,1.34,0,0,1,1.84,0,1.3,1.3,0,0,1,0,1.84A1.32,1.32,0,0,1,.75,72Z"/><path class="cls-2" d="M1.25,46.55a1.34,1.34,0,0,1-.92-.38,1.3,1.3,0,0,1,0-1.84,1.34,1.34,0,0,1,1.84,0,1.3,1.3,0,0,1,0,1.84A1.32,1.32,0,0,1,1.25,46.55Z"/><path class="cls-2" d="M.25,57.3a1.32,1.32,0,0,1-.92-.38,1.3,1.3,0,0,1,0-1.84,1.35,1.35,0,0,1,1.84,0,1.3,1.3,0,0,1,0,1.84A1.32,1.32,0,0,1,.25,57.3Z"/><path class="cls-2" d="M1.25,53.3a1.32,1.32,0,0,1-.92-.38,1.3,1.3,0,0,1,0-1.84,1.35,1.35,0,0,1,1.84,0,1.3,1.3,0,0,1,0,1.84A1.32,1.32,0,0,1,1.25,53.3Z"/><path class="cls-2" d="M67.75.55a1.32,1.32,0,0,1-.92-.38,1.32,1.32,0,0,1-.38-.92,1.32,1.32,0,0,1,.38-.92,1.35,1.35,0,0,1,1.84,0A1.32,1.32,0,0,1,69-.75a1.32,1.32,0,0,1-.38.92A1.3,1.3,0,0,1,67.75.55Z"/><path class="cls-2" d="M55,1.55a1.32,1.32,0,0,1-.92-.38A1.32,1.32,0,0,1,53.7.25a1.32,1.32,0,0,1,.38-.92,1.35,1.35,0,0,1,1.84,0,1.32,1.32,0,0,1,.38.92,1.32,1.32,0,0,1-.38.92A1.32,1.32,0,0,1,55,1.55Z"/><path class="cls-2" d="M41,.8a1.34,1.34,0,0,1-.92-.38A1.32,1.32,0,0,1,39.7-.5a1.32,1.32,0,0,1,.38-.92,1.35,1.35,0,0,1,1.84,0,1.32,1.32,0,0,1,.38.92,1.32,1.32,0,0,1-.38.92A1.32,1.32,0,0,1,41,.8Z"/><path class="cls-2" d="M11.5,2a1.34,1.34,0,0,1-.92-.38A1.32,1.32,0,0,1,10.2.75a1.32,1.32,0,0,1,.38-.92,1.35,1.35,0,0,1,1.84,0,1.32,1.32,0,0,1,.38.92,1.32,1.32,0,0,1-.38.92A1.32,1.32,0,0,1,11.5,2Z"/><path class="cls-2" d="M21.25,1.8a1.34,1.34,0,0,1-.92-.38A1.32,1.32,0,0,1,19.95.5a1.34,1.34,0,0,1,.38-.92,1.35,1.35,0,0,1,1.84,0,1.32,1.32,0,0,1,.38.92,1.32,1.32,0,0,1-.38.92A1.32,1.32,0,0,1,21.25,1.8Z"/><path class="cls-2" d="M17,2.55a1.3,1.3,0,0,1-1.3-1.3,1.32,1.32,0,0,1,.38-.92,1.35,1.35,0,0,1,1.84,0,1.3,1.3,0,0,1,0,1.84A1.3,1.3,0,0,1,17,2.55Z"/><path class="cls-2" d="M27.75,2.55a1.3,1.3,0,0,1-1.3-1.3,1.32,1.32,0,0,1,.38-.92,1.35,1.35,0,0,1,1.84,0,1.3,1.3,0,0,1,0,1.84A1.3,1.3,0,0,1,27.75,2.55Z"/><path class="cls-2" d="M55,1.55a1.32,1.32,0,0,1-.92-.38A1.32,1.32,0,0,1,53.7.25a1.32,1.32,0,0,1,.38-.92,1.35,1.35,0,0,1,1.84,0,1.32,1.32,0,0,1,.38.92,1.32,1.32,0,0,1-.38.92A1.32,1.32,0,0,1,55,1.55Z"/><path class="cls-2" d="M7.75,2a1.34,1.34,0,0,1-.92-.38A1.32,1.32,0,0,1,6.45.75a1.32,1.32,0,0,1,.38-.92,1.35,1.35,0,0,1,1.84,0A1.32,1.32,0,0,1,9,.75a1.34,1.34,0,0,1-.38.92A1.32,1.32,0,0,1,7.75,2Z"/><path class="cls-2" d="M55,1.55a1.32,1.32,0,0,1-.92-.38A1.32,1.32,0,0,1,53.7.25a1.32,1.32,0,0,1,.38-.92,1.35,1.35,0,0,1,1.84,0,1.32,1.32,0,0,1,.38.92,1.32,1.32,0,0,1-.38.92A1.32,1.32,0,0,1,55,1.55Z"/><path class="cls-2" d="M72.75,0a1.34,1.34,0,0,1-.92-.38,1.32,1.32,0,0,1-.38-.92,1.32,1.32,0,0,1,.38-.92,1.34,1.34,0,0,1,1.84,0,1.32,1.32,0,0,1,.38.92,1.32,1.32,0,0,1-.38.92A1.32,1.32,0,0,1,72.75,0Z"/><path class="cls-2" d="M.75,0A1.34,1.34,0,0,1-.17-.33a1.32,1.32,0,0,1-.38-.92,1.32,1.32,0,0,1,.38-.92,1.34,1.34,0,0,1,1.84,0A1.32,1.32,0,0,1,2-1.25a1.32,1.32,0,0,1-.38.92A1.32,1.32,0,0,1,.75,0Z"/></pattern></defs><title>Asset 7</title><g id="Layer_2" data-name="Layer 2"><g id="Layer_1-2" data-name="Layer 1"><rect class="cls-3" width="124.94" height="124.94"/></g></g></svg>