<svg xmlns="http://www.w3.org/2000/svg" xmlns:xlink="http://www.w3.org/1999/xlink" width="124.94" height="124.94" viewBox="0 0 124.94 124.94"><defs><style>.cls-1,.cls-10,.cls-2,.cls-3,.cls-4,.cls-5,.cls-6,.cls-7,.cls-8,.cls-9{fill:none;}.cls-10,.cls-2,.cls-3,.cls-4,.cls-5,.cls-6,.cls-7,.cls-8,.cls-9{stroke:#231f20;}.cls-2{stroke-width:2.5px;}.cls-3{stroke-width:0.5px;}.cls-4{stroke-width:0.75px;}.cls-6{stroke-width:1.25px;}.cls-7{stroke-width:1.5px;}.cls-8{stroke-width:1.75px;}.cls-9{stroke-width:2px;}.cls-10{stroke-width:2.25px;}.cls-11{fill:url(#Undulating_Fine_Lines);}</style><pattern id="Undulating_Fine_Lines" data-name="Undulating Fine Lines" width="60.75" height="72" patternUnits="userSpaceOnUse" viewBox="0 0 60.75 72"><rect class="cls-1" width="60.75" height="72"/><line class="cls-2" x1="60.75" x2="60.75" y2="72"/><line class="cls-3" x1="30.38" x2="30.38" y2="72"/><line class="cls-4" x1="26.58" x2="26.58" y2="72"/><line class="cls-5" x1="22.78" x2="22.78" y2="72"/><line class="cls-6" x1="18.98" x2="18.98" y2="72"/><line class="cls-7" x1="15.19" x2="15.19" y2="72"/><line class="cls-8" x1="11.39" x2="11.39" y2="72"/><line class="cls-9" x1="7.59" x2="7.59" y2="72"/><line class="cls-10" x1="3.8" x2="3.8" y2="72"/><line class="cls-2" y2="72"/><line class="cls-4" x1="34.17" x2="34.17" y2="72"/><line class="cls-5" x1="37.97" x2="37.97" y2="72"/><line class="cls-6" x1="41.76" x2="41.76" y2="72"/><line class="cls-7" x1="45.56" x2="45.56" y2="72"/><line class="cls-8" x1="49.36" x2="49.36" y2="72"/><line class="cls-9" x1="53.16" x2="53.16" y2="72"/><line class="cls-10" x1="56.95" x2="56.95" y2="72"/><line class="cls-2" x1="60.75" x2="60.75" y2="72"/><line class="cls-2" y2="72"/></pattern></defs><title>Asset 6</title><g id="Layer_2" data-name="Layer 2"><g id="Layer_1-2" data-name="Layer 1"><rect class="cls-11" width="124.94" height="124.94"/></g></g></svg>