<svg id="Layer_1" data-name="Layer 1" xmlns="http://www.w3.org/2000/svg" width="430.82" height="449.43" viewBox="0 0 430.82 449.43"><defs><style>.cls-1{opacity:0.78;}.cls-2{fill:red;}</style></defs><title>8bit_bomb</title><g class="cls-1"><rect class="cls-2" x="268.29" y="30.08" width="15.04" height="15.04"/><rect class="cls-2" x="150.42" y="73.82" width="15.04" height="15.04"/><rect class="cls-2" x="312.7" width="15.04" height="15.04"/><rect class="cls-2" x="385.69" width="15.04" height="15.04"/><rect class="cls-2" x="370.65" y="15.04" width="15.04" height="15.04"/><rect class="cls-2" x="327.75" y="30.08" width="15.04" height="15.04"/><rect class="cls-2" x="385.69" y="60.17" width="15.04" height="15.04"/><rect class="cls-2" x="415.77" y="60.17" width="15.04" height="15.04"/><rect class="cls-2" x="385.69" y="103.47" width="15.04" height="15.04"/><polygon class="cls-2" points="330.92 71.99 315.88 71.99 315.88 87.03 330.92 87.03 345.97 87.03 361.01 87.03 361.01 71.99 345.97 71.99 330.92 71.99"/><rect class="cls-2" x="60.17" y="253.89" width="15.04" height="15.04"/><polygon class="cls-2" points="60.17 314.05 60.17 299.01 60.17 283.97 45.13 283.97 45.13 299.01 45.13 314.05 45.13 329.1 60.17 329.1 60.17 314.05"/><rect class="cls-2" x="60.17" y="344.14" width="15.04" height="15.04"/><rect class="cls-2" x="90.25" y="374.22" width="15.04" height="15.04"/><path class="cls-2" d="M319.66,104.44v29.65H274.53v45.13H244.45v15H214.36v30.08h-15v30.08h-15V359.72h15v30.08h15v30.08h30.08v15h30.08v15H379.83v-15h30.08v-15H440v-30h15v-30h15V254.66H455V224.58H440V194.5H410.15V179.22H379.83V134.09H334.7V89.4h-15Zm30.08,44.69h15v45.13h30.32v15.28H425v30.08h15v30.08h15v75.13H440v30H425v30H394.87v15H364.79v15H289.58v-15H259.49v-15H229.41V374.76h-15V344.68h-15V269.47h15V239.39h15V209.3h30.08v-15h30.08V149.13h60.17Z" transform="translate(-184.28 -0.54)"/><polygon class="cls-2" points="285.8 87.03 270.76 87.03 270.76 102.07 285.8 102.07 300.84 102.07 315.88 102.07 315.88 87.03 300.84 87.03 285.8 87.03"/><polygon class="cls-2" points="225.63 60.6 210.59 60.6 195.55 60.6 180.5 60.6 165.46 60.6 165.46 73.82 180.5 73.82 195.55 73.82 210.59 73.82 225.63 73.82 240.67 73.82 240.67 60.6 225.63 60.6"/><polygon class="cls-2" points="255.71 73.82 240.67 73.82 240.67 87.03 255.71 87.03 270.76 87.03 270.76 73.82 255.71 73.82"/><rect class="cls-2" x="342.79" y="118.51" width="15.04" height="15.04"/><rect class="cls-2" x="342.79" y="148.59" width="15.04" height="15.04"/><rect class="cls-2" x="297.66" y="118.51" width="15.04" height="15.04"/><rect class="cls-2" x="282.62" y="133.55" width="15.04" height="15.04"/><rect class="cls-2" x="400.73" y="118.51" width="15.04" height="15.04"/><rect class="cls-2" x="297.66" y="45.13" width="15.04" height="15.04"/></g></svg>